<?xml version="1.0" encoding="UTF-8" standalone="no"?>
<svg
   xmlns:dc="http://purl.org/dc/elements/1.1/"
   xmlns:cc="http://creativecommons.org/ns#"
   xmlns:rdf="http://www.w3.org/1999/02/22-rdf-syntax-ns#"
   xmlns:svg="http://www.w3.org/2000/svg"
   xmlns="http://www.w3.org/2000/svg"
   viewBox="0 0 865.27997 290.56"
   height="290.56"
   width="865.27997"
   xml:space="preserve"
   id="svg2"
   version="1.1"><metadata
     id="metadata8"><rdf:RDF><cc:Work
         rdf:about=""><dc:format>image/svg+xml</dc:format><dc:type
           rdf:resource="http://purl.org/dc/dcmitype/StillImage" /></cc:Work></rdf:RDF></metadata><defs
     id="defs6"><clipPath
       id="clipPath18"
       clipPathUnits="userSpaceOnUse"><path
         style="clip-rule:evenodd"
         id="path16"
         d="M 0,0 H 2704.1665 V 906.39099 H 0 Z" /></clipPath><clipPath
       id="clipPath32"
       clipPathUnits="userSpaceOnUse"><path
         style="clip-rule:evenodd"
         id="path30"
         d="M 0,0 H 2704.1665 V 903.38965 H 0 Z" /></clipPath></defs><g
     transform="matrix(0.31999998,0,0,0.31999998,0,7.264e-6)"
     id="g10"><g
       id="g12"><g
         clip-path="url(#clipPath18)"
         id="g14"><g
           transform="scale(3.0012946)"
           id="g20"><path
             id="path22"
             style="fill:#ffffff;fill-opacity:1;fill-rule:nonzero;stroke:none"
             d="M 0,0 H 901 V 302 H 0 Z" /><path
             id="path24"
             style="fill:#ffffff;fill-opacity:1;fill-rule:nonzero;stroke:none"
             d="M 0,0 H 901 V 301 H 0 Z" /></g></g></g><g
       id="g26"><g
         clip-path="url(#clipPath32)"
         id="g28"><g
           transform="matrix(3.0012946,0,0,3.0012946,1.5006473,1.5006473)"
           id="g34"><path
             id="path36"
             style="fill:#fae5c7;fill-opacity:1;fill-rule:nonzero;stroke:none"
             d="m 67.5,10 h 345 c 1.22818,10e-7 2.4534,0.06019 3.67566,0.180573 1.22223,0.120381 2.43564,0.300375 3.6402,0.539978 1.20459,0.239605 2.39453,0.537667 3.56979,0.894186 1.17526,0.356518 2.33026,0.769778 3.46494,1.239778 1.13467,0.470001 2.24359,0.99448 3.32675,1.573437 1.08313,0.578956 2.13528,1.2096 3.15646,1.891935 1.02121,0.682337 2.00653,1.413077 2.9559,2.192221 0.94941,0.779144 1.85834,1.602939 2.72678,2.471386 0.86847,0.868448 1.69226,1.777368 2.47137,2.726757 0.77918,0.949388 1.50992,1.934677 2.1922,2.955864 0.68235,1.021189 1.31302,2.073356 1.89197,3.156507 0.57895,1.083151 1.10343,2.192065 1.57343,3.326746 0.47,1.134682 0.88327,2.289666 1.2398,3.464955 0.35654,1.175285 0.65458,2.365215 0.89417,3.569786 0.23962,1.204574 0.41965,2.417991 0.54004,3.640247 0.12039,1.22226 0.18057,2.447476 0.18054,3.675644 v 175 c 3e-5,1.22816 -0.0602,2.45338 -0.18054,3.67563 -0.12039,1.22226 -0.30042,2.43567 -0.54001,3.64023 -0.23959,1.20459 -0.53766,2.39451 -0.8942,3.56979 -0.35653,1.17529 -0.7698,2.33028 -1.2398,3.46495 -0.47,1.13469 -0.99448,2.24361 -1.57343,3.32677 -0.57895,1.08314 -1.20962,2.1353 -1.89197,3.15648 -0.68228,1.02121 -1.41302,2.0065 -2.1922,2.95588 -0.77911,0.94939 -1.6029,1.85831 -2.47137,2.72676 -0.86844,0.86846 -1.77737,1.69227 -2.72675,2.47141 -0.9494,0.77913 -1.93469,1.50986 -2.9559,2.19218 -1.02121,0.68235 -2.07336,1.31299 -3.15649,1.89194 -1.08316,0.57895 -2.19208,1.10343 -3.32675,1.57343 -1.13468,0.47 -2.28968,0.88327 -3.46494,1.2398 -1.17526,0.35654 -2.3652,0.65461 -3.56979,0.8942 -1.20456,0.23959 -2.41797,0.41959 -3.64023,0.53998 C 414.9534,259.93982 413.72818,260 412.5,260 h -345 c -1.228172,0 -2.453384,-0.0602 -3.67564,-0.18057 -1.222263,-0.12039 -2.43568,-0.30039 -3.640251,-0.53998 -1.204571,-0.23959 -2.394497,-0.53769 -3.569786,-0.89423 -1.175289,-0.3565 -2.330273,-0.76977 -3.464959,-1.23977 -1.134677,-0.47 -2.243595,-0.99445 -3.326747,-1.57341 -1.083149,-0.57897 -2.135315,-1.20961 -3.156506,-1.89196 -1.021183,-0.68232 -2.00647,-1.41305 -2.95586,-2.19218 -0.949387,-0.77914 -1.858307,-1.60295 -2.726757,-2.47141 -0.86845,-0.86845 -1.692246,-1.77737 -2.47139,-2.72676 -0.77914,-0.94938 -1.50988,-1.93467 -2.192219,-2.95588 -0.682331,-1.02117 -1.312977,-2.07334 -1.891933,-3.15648 -0.578957,-1.08315 -1.103436,-2.19206 -1.573441,-3.32675 -0.469997,-1.13468 -0.883257,-2.28966 -1.239776,-3.46495 -0.35652,-1.17528 -0.654581,-2.36522 -0.894186,-3.5698 -0.239603,-1.20456 -0.419594,-2.41797 -0.539976,-3.64024 C 30.06019,224.95338 30,223.72816 30,222.5 v -175 c 0,-1.228168 0.06019,-2.453384 0.180573,-3.675644 0.12038,-1.222256 0.300371,-2.435673 0.539974,-3.640247 0.239605,-1.204571 0.537668,-2.394501 0.894188,-3.569786 0.356519,-1.175289 0.769779,-2.330273 1.239776,-3.464959 0.470005,-1.134681 0.994484,-2.243595 1.573441,-3.326746 0.578956,-1.083148 1.209602,-2.135316 1.891933,-3.156503 0.682339,-1.021187 1.413079,-2.006476 2.192219,-2.955864 0.779144,-0.949389 1.60294,-1.858309 2.47139,-2.726757 0.86845,-0.868447 1.77737,-1.692242 2.726757,-2.471388 0.94939,-0.779142 1.934677,-1.509882 2.955864,-2.192219 1.021187,-0.682335 2.073356,-1.312979 3.156505,-1.891935 1.083149,-0.578957 2.192067,-1.103436 3.326744,-1.573437 1.134686,-0.47 2.28967,-0.88326 3.464959,-1.239778 1.175289,-0.356519 2.365215,-0.654581 3.569786,-0.894186 1.204571,-0.239603 2.417988,-0.419597 3.640251,-0.539978 C 65.046616,10.060191 66.271828,10.000001 67.5,10 Z" /><path
             id="path38"
             style="fill:none;stroke:#0f8b8d;stroke-width:1;stroke-linecap:butt;stroke-linejoin:miter;stroke-miterlimit:10;stroke-dasharray:none;stroke-opacity:1"
             d="m 67.5,10 h 345 c 1.22818,10e-7 2.4534,0.06019 3.67566,0.180573 1.22223,0.120381 2.43564,0.300375 3.6402,0.539978 1.20459,0.239605 2.39453,0.537667 3.56979,0.894186 1.17526,0.356518 2.33026,0.769778 3.46494,1.239778 1.13467,0.470001 2.24359,0.99448 3.32675,1.573437 1.08313,0.578956 2.13528,1.2096 3.15646,1.891935 1.02121,0.682337 2.00653,1.413077 2.9559,2.192221 0.94941,0.779144 1.85834,1.602939 2.72678,2.471386 0.86847,0.868448 1.69226,1.777368 2.47137,2.726757 0.77918,0.949388 1.50992,1.934677 2.1922,2.955864 0.68235,1.021189 1.31302,2.073356 1.89197,3.156507 0.57895,1.083151 1.10343,2.192065 1.57343,3.326746 0.47,1.134682 0.88327,2.289666 1.2398,3.464955 0.35654,1.175285 0.65458,2.365215 0.89417,3.569786 0.23962,1.204574 0.41965,2.417991 0.54004,3.640247 0.12039,1.22226 0.18057,2.447476 0.18054,3.675644 v 175 c 3e-5,1.22816 -0.0602,2.45338 -0.18054,3.67563 -0.12039,1.22226 -0.30042,2.43567 -0.54001,3.64023 -0.23959,1.20459 -0.53766,2.39451 -0.8942,3.56979 -0.35653,1.17529 -0.7698,2.33028 -1.2398,3.46495 -0.47,1.13469 -0.99448,2.24361 -1.57343,3.32677 -0.57895,1.08314 -1.20962,2.1353 -1.89197,3.15648 -0.68228,1.02121 -1.41302,2.0065 -2.1922,2.95588 -0.77911,0.94939 -1.6029,1.85831 -2.47137,2.72676 -0.86844,0.86846 -1.77737,1.69227 -2.72675,2.47141 -0.9494,0.77913 -1.93469,1.50986 -2.9559,2.19218 -1.02121,0.68235 -2.07336,1.31299 -3.15649,1.89194 -1.08316,0.57895 -2.19208,1.10343 -3.32675,1.57343 -1.13468,0.47 -2.28968,0.88327 -3.46494,1.2398 -1.17526,0.35654 -2.3652,0.65461 -3.56979,0.8942 -1.20456,0.23959 -2.41797,0.41959 -3.64023,0.53998 C 414.9534,259.93982 413.72818,260 412.5,260 h -345 c -1.228172,0 -2.453384,-0.0602 -3.67564,-0.18057 -1.222263,-0.12039 -2.43568,-0.30039 -3.640251,-0.53998 -1.204571,-0.23959 -2.394497,-0.53769 -3.569786,-0.89423 -1.175289,-0.3565 -2.330273,-0.76977 -3.464959,-1.23977 -1.134677,-0.47 -2.243595,-0.99445 -3.326747,-1.57341 -1.083149,-0.57897 -2.135315,-1.20961 -3.156506,-1.89196 -1.021183,-0.68232 -2.00647,-1.41305 -2.95586,-2.19218 -0.949387,-0.77914 -1.858307,-1.60295 -2.726757,-2.47141 -0.86845,-0.86845 -1.692246,-1.77737 -2.47139,-2.72676 -0.77914,-0.94938 -1.50988,-1.93467 -2.192219,-2.95588 -0.682331,-1.02117 -1.312977,-2.07334 -1.891933,-3.15648 -0.578957,-1.08315 -1.103436,-2.19206 -1.573441,-3.32675 -0.469997,-1.13468 -0.883257,-2.28966 -1.239776,-3.46495 -0.35652,-1.17528 -0.654581,-2.36522 -0.894186,-3.5698 -0.239603,-1.20456 -0.419594,-2.41797 -0.539976,-3.64024 C 30.06019,224.95338 30,223.72816 30,222.5 v -175 c 0,-1.228168 0.06019,-2.453384 0.180573,-3.675644 0.12038,-1.222256 0.300371,-2.435673 0.539974,-3.640247 0.239605,-1.204571 0.537668,-2.394501 0.894188,-3.569786 0.356519,-1.175289 0.769779,-2.330273 1.239776,-3.464959 0.470005,-1.134681 0.994484,-2.243595 1.573441,-3.326746 0.578956,-1.083148 1.209602,-2.135316 1.891933,-3.156503 0.682339,-1.021187 1.413079,-2.006476 2.192219,-2.955864 0.779144,-0.949389 1.60294,-1.858309 2.47139,-2.726757 0.86845,-0.868447 1.77737,-1.692242 2.726757,-2.471388 0.94939,-0.779142 1.934677,-1.509882 2.955864,-2.192219 1.021187,-0.682335 2.073356,-1.312979 3.156505,-1.891935 1.083149,-0.578957 2.192067,-1.103436 3.326744,-1.573437 1.134686,-0.47 2.28967,-0.88326 3.464959,-1.239778 1.175289,-0.356519 2.365215,-0.654581 3.569786,-0.894186 1.204571,-0.239603 2.417988,-0.419597 3.640251,-0.539978 C 65.046616,10.060191 66.271828,10.000001 67.5,10 Z" /><path
             id="path40"
             style="fill:#dae8fc;fill-opacity:1;fill-rule:nonzero;stroke:none"
             d="m 152.5,50 h 175 c 0.73691,0 1.47202,0.03611 2.20538,0.108345 0.73334,0.07223 1.46137,0.180222 2.18412,0.323982 0.72274,0.143765 1.43673,0.322605 2.1419,0.536515 0.70517,0.213913 1.39813,0.461868 2.07895,0.743866 0.68082,0.282001 1.34619,0.596691 1.99606,0.944065 0.64988,0.347374 1.28119,0.725757 1.8939,1.135154 0.61273,0.409405 1.20391,0.847847 1.77352,1.315335 0.56965,0.467487 1.11499,0.961765 1.63605,1.482834 0.52109,0.521068 1.01535,1.066421 1.48282,1.636055 0.4675,0.569633 0.90591,1.160804 1.31531,1.773513 0.40939,0.612717 0.78778,1.244019 1.13516,1.89391 0.34738,0.649891 0.66205,1.315239 0.94406,1.996044 0.28201,0.680809 0.52997,1.373802 0.74387,2.078972 0.21393,0.705169 0.39279,1.419128 0.53656,2.141868 0.14377,0.722748 0.25177,1.450798 0.324,2.184159 C 349.9639,71.027969 350,71.7631 350,72.5 v 105 c 0,0.73689 -0.0361,1.47203 -0.10834,2.20538 -0.0722,0.73336 -0.18026,1.4614 -0.32403,2.18413 -0.14377,0.72276 -0.3226,1.43672 -0.5365,2.14189 -0.2139,0.70517 -0.46189,1.39817 -0.7439,2.07897 -0.28201,0.68081 -0.59668,1.34617 -0.94403,1.99606 -0.34738,0.64989 -0.72577,1.28117 -1.13516,1.89389 -0.40939,0.61272 -0.84784,1.20389 -1.31534,1.77353 -0.46747,0.56963 -0.96173,1.11497 -1.48282,1.63605 -0.52106,0.52107 -1.0664,1.01535 -1.63608,1.48283 -0.56961,0.46748 -1.16076,0.90592 -1.77349,1.31531 -0.61271,0.40941 -1.24402,0.78781 -1.8939,1.13518 -0.64987,0.34736 -1.31524,0.66204 -1.99606,0.94404 -0.68082,0.28201 -1.37378,0.52997 -2.07895,0.74387 -0.70517,0.21391 -1.41916,0.39276 -2.1419,0.53651 -0.72275,0.14377 -1.45078,0.25177 -2.18412,0.32401 C 328.97202,199.96388 328.23691,200 327.5,200 h -175 c -0.73689,0 -1.47202,-0.0361 -2.20538,-0.10835 -0.73336,-0.0722 -1.4614,-0.18024 -2.18416,-0.32401 -0.72273,-0.14375 -1.43669,-0.32258 -2.14186,-0.5365 -0.70519,-0.21391 -1.39818,-0.46187 -2.079,-0.74388 -0.6808,-0.282 -1.34614,-0.59666 -1.99602,-0.94403 -0.6499,-0.34738 -1.2812,-0.72577 -1.89392,-1.13518 -0.61271,-0.40939 -1.20388,-0.84784 -1.77351,-1.31532 -0.56964,-0.46748 -1.11499,-0.96176 -1.63606,-1.48283 -0.52107,-0.52108 -1.01534,-1.06642 -1.48282,-1.63607 -0.46748,-0.56962 -0.90595,-1.16081 -1.31535,-1.77352 -0.4094,-0.61271 -0.78779,-1.24401 -1.13515,-1.8939 -0.34737,-0.64988 -0.66207,-1.31523 -0.94408,-1.99606 -0.282,-0.6808 -0.52994,-1.37379 -0.74385,-2.07895 -0.21391,-0.70518 -0.39276,-1.41914 -0.53651,-2.14189 -0.14376,-0.72273 -0.25176,-1.45077 -0.32399,-2.18413 C 130.03612,178.97203 130,178.23689 130,177.5 v -105 c 0,-0.7369 0.0361,-1.472031 0.10834,-2.205383 0.0722,-0.733361 0.18023,-1.461411 0.32399,-2.184159 0.14375,-0.72274 0.3226,-1.436699 0.53651,-2.141868 0.21391,-0.70517 0.46185,-1.398163 0.74385,-2.078972 0.28201,-0.680805 0.59671,-1.346153 0.94408,-1.996044 0.34736,-0.649891 0.72575,-1.281193 1.13515,-1.89391 0.4094,-0.612709 0.84787,-1.20388 1.31535,-1.773513 0.46748,-0.569634 0.96175,-1.114987 1.48282,-1.636055 0.52107,-0.521069 1.06642,-1.015343 1.63606,-1.482831 0.56963,-0.467487 1.1608,-0.905933 1.77351,-1.315338 0.61272,-0.409397 1.24402,-0.78778 1.89391,-1.135154 0.64989,-0.347374 1.31523,-0.662064 1.99603,-0.944065 0.68082,-0.281998 1.37381,-0.529953 2.079,-0.743863 0.70517,-0.213913 1.41913,-0.392753 2.14186,-0.536518 0.72276,-0.14376 1.4508,-0.251754 2.18416,-0.323978 C 151.02798,50.036118 151.76311,50 152.5,50 Z" /><path
             id="path42"
             style="fill:none;stroke:#6c8ebf;stroke-width:1;stroke-linecap:butt;stroke-linejoin:miter;stroke-miterlimit:10;stroke-dasharray:none;stroke-opacity:1"
             d="m 152.5,50 h 175 c 0.73691,0 1.47202,0.03611 2.20538,0.108345 0.73334,0.07223 1.46137,0.180222 2.18412,0.323982 0.72274,0.143765 1.43673,0.322605 2.1419,0.536515 0.70517,0.213913 1.39813,0.461868 2.07895,0.743866 0.68082,0.282001 1.34619,0.596691 1.99606,0.944065 0.64988,0.347374 1.28119,0.725757 1.8939,1.135154 0.61273,0.409405 1.20391,0.847847 1.77352,1.315335 0.56965,0.467487 1.11499,0.961765 1.63605,1.482834 0.52109,0.521068 1.01535,1.066421 1.48282,1.636055 0.4675,0.569633 0.90591,1.160804 1.31531,1.773513 0.40939,0.612717 0.78778,1.244019 1.13516,1.89391 0.34738,0.649891 0.66205,1.315239 0.94406,1.996044 0.28201,0.680809 0.52997,1.373802 0.74387,2.078972 0.21393,0.705169 0.39279,1.419128 0.53656,2.141868 0.14377,0.722748 0.25177,1.450798 0.324,2.184159 C 349.9639,71.027969 350,71.7631 350,72.5 v 105 c 0,0.73689 -0.0361,1.47203 -0.10834,2.20538 -0.0722,0.73336 -0.18026,1.4614 -0.32403,2.18413 -0.14377,0.72276 -0.3226,1.43672 -0.5365,2.14189 -0.2139,0.70517 -0.46189,1.39817 -0.7439,2.07897 -0.28201,0.68081 -0.59668,1.34617 -0.94403,1.99606 -0.34738,0.64989 -0.72577,1.28117 -1.13516,1.89389 -0.40939,0.61272 -0.84784,1.20389 -1.31534,1.77353 -0.46747,0.56963 -0.96173,1.11497 -1.48282,1.63605 -0.52106,0.52107 -1.0664,1.01535 -1.63608,1.48283 -0.56961,0.46748 -1.16076,0.90592 -1.77349,1.31531 -0.61271,0.40941 -1.24402,0.78781 -1.8939,1.13518 -0.64987,0.34736 -1.31524,0.66204 -1.99606,0.94404 -0.68082,0.28201 -1.37378,0.52997 -2.07895,0.74387 -0.70517,0.21391 -1.41916,0.39276 -2.1419,0.53651 -0.72275,0.14377 -1.45078,0.25177 -2.18412,0.32401 C 328.97202,199.96388 328.23691,200 327.5,200 h -175 c -0.73689,0 -1.47202,-0.0361 -2.20538,-0.10835 -0.73336,-0.0722 -1.4614,-0.18024 -2.18416,-0.32401 -0.72273,-0.14375 -1.43669,-0.32258 -2.14186,-0.5365 -0.70519,-0.21391 -1.39818,-0.46187 -2.079,-0.74388 -0.6808,-0.282 -1.34614,-0.59666 -1.99602,-0.94403 -0.6499,-0.34738 -1.2812,-0.72577 -1.89392,-1.13518 -0.61271,-0.40939 -1.20388,-0.84784 -1.77351,-1.31532 -0.56964,-0.46748 -1.11499,-0.96176 -1.63606,-1.48283 -0.52107,-0.52108 -1.01534,-1.06642 -1.48282,-1.63607 -0.46748,-0.56962 -0.90595,-1.16081 -1.31535,-1.77352 -0.4094,-0.61271 -0.78779,-1.24401 -1.13515,-1.8939 -0.34737,-0.64988 -0.66207,-1.31523 -0.94408,-1.99606 -0.282,-0.6808 -0.52994,-1.37379 -0.74385,-2.07895 -0.21391,-0.70518 -0.39276,-1.41914 -0.53651,-2.14189 -0.14376,-0.72273 -0.25176,-1.45077 -0.32399,-2.18413 C 130.03612,178.97203 130,178.23689 130,177.5 v -105 c 0,-0.7369 0.0361,-1.472031 0.10834,-2.205383 0.0722,-0.733361 0.18023,-1.461411 0.32399,-2.184159 0.14375,-0.72274 0.3226,-1.436699 0.53651,-2.141868 0.21391,-0.70517 0.46185,-1.398163 0.74385,-2.078972 0.28201,-0.680805 0.59671,-1.346153 0.94408,-1.996044 0.34736,-0.649891 0.72575,-1.281193 1.13515,-1.89391 0.4094,-0.612709 0.84787,-1.20388 1.31535,-1.773513 0.46748,-0.569634 0.96175,-1.114987 1.48282,-1.636055 0.52107,-0.521069 1.06642,-1.015343 1.63606,-1.482831 0.56963,-0.467487 1.1608,-0.905933 1.77351,-1.315338 0.61272,-0.409397 1.24402,-0.78778 1.89391,-1.135154 0.64989,-0.347374 1.31523,-0.662064 1.99603,-0.944065 0.68082,-0.281998 1.37381,-0.529953 2.079,-0.743863 0.70517,-0.213913 1.41913,-0.392753 2.14186,-0.536518 0.72276,-0.14376 1.4508,-0.251754 2.18416,-0.323978 C 151.02798,50.036118 151.76311,50 152.5,50 Z" /><path
             id="path44"
             style="fill:none;stroke:#000000;stroke-width:1;stroke-linecap:butt;stroke-linejoin:miter;stroke-miterlimit:10;stroke-dasharray:none;stroke-opacity:1"
             d="m 207.5,103.75 h 8.63" /><path
             id="path46"
             style="fill:#000000;fill-opacity:1;fill-rule:nonzero;stroke:none"
             d="m 221.38,103.75 -7,3.5 1.75,-3.5 -1.75,-3.5 z" /><path
             id="path48"
             style="fill:none;stroke:#000000;stroke-width:1;stroke-linecap:butt;stroke-linejoin:miter;stroke-miterlimit:10;stroke-dasharray:none;stroke-opacity:1"
             d="m 221.38,103.75 -7,3.5 1.75,-3.5 -1.75,-3.5 z" /><path
             id="path50"
             style="fill:#e1d5e7;fill-opacity:1;fill-rule:nonzero;stroke:none"
             d="m 141.63,90 h 61.74 c 0.54765,0 1.07447,0.10479 1.58045,0.314377 0.50599,0.209572 0.95261,0.507995 1.33989,0.895264 0.38726,0.38726 0.68569,0.833877 0.89527,1.339859 0.20958,0.505989 0.31437,1.032821 0.31439,1.580497 V 113.37 c -2e-5,0.54766 -0.10481,1.07449 -0.31439,1.58047 -0.20958,0.50598 -0.50801,0.95261 -0.89527,1.33987 -0.38728,0.38727 -0.8339,0.68568 -1.33987,0.89527 -0.506,0.20959 -1.03282,0.31438 -1.58047,0.31439 h -61.74 c -0.54768,-1e-5 -1.07452,-0.1048 -1.5805,-0.31439 -0.50598,-0.20959 -0.95261,-0.508 -1.33986,-0.89527 -0.38727,-0.38726 -0.6857,-0.83389 -0.89528,-1.33987 -0.20958,-0.50598 -0.31438,-1.03281 -0.31436,-1.58047 V 94.129997 c -2e-5,-0.547676 0.10478,-1.074508 0.31436,-1.580497 0.20958,-0.505982 0.50801,-0.952599 0.89528,-1.339859 0.38725,-0.387269 0.83388,-0.685692 1.33986,-0.895272 C 140.55548,90.10479 141.08232,90 141.63,90 Z" /><path
             id="path52"
             style="fill:none;stroke:#9673a6;stroke-width:1;stroke-linecap:butt;stroke-linejoin:miter;stroke-miterlimit:10;stroke-dasharray:none;stroke-opacity:1"
             d="m 141.63,90 h 61.74 c 0.54765,0 1.07447,0.10479 1.58045,0.314377 0.50599,0.209572 0.95261,0.507995 1.33989,0.895264 0.38726,0.38726 0.68569,0.833877 0.89527,1.339859 0.20958,0.505989 0.31437,1.032821 0.31439,1.580497 V 113.37 c -2e-5,0.54766 -0.10481,1.07449 -0.31439,1.58047 -0.20958,0.50598 -0.50801,0.95261 -0.89527,1.33987 -0.38728,0.38727 -0.8339,0.68568 -1.33987,0.89527 -0.506,0.20959 -1.03282,0.31438 -1.58047,0.31439 h -61.74 c -0.54768,-1e-5 -1.07452,-0.1048 -1.5805,-0.31439 -0.50598,-0.20959 -0.95261,-0.508 -1.33986,-0.89527 -0.38727,-0.38726 -0.6857,-0.83389 -0.89528,-1.33987 -0.20958,-0.50598 -0.31438,-1.03281 -0.31436,-1.58047 V 94.129997 c -2e-5,-0.547676 0.10478,-1.074508 0.31436,-1.580497 0.20958,-0.505982 0.50801,-0.952599 0.89528,-1.339859 0.38725,-0.387269 0.83388,-0.685692 1.33986,-0.895272 C 140.55548,90.10479 141.08232,90 141.63,90 Z" /></g><g
           transform="scale(3.0012946)"
           id="g54"><text
             id="text58"
             style="font-variant:normal;font-weight:normal;font-size:12px;font-family:ArialMT;-inkscape-font-specification:ArialMT;writing-mode:lr-tb;fill:#000000;fill-opacity:1;fill-rule:nonzero;stroke:none"
             transform="translate(141.76562,108)"><tspan
               id="tspan56"
               y="0"
               x="0 7.3300781 10.664062 17.994141 27.328125 30.662109 38.666016 45.339844 48.457031 51.791016 58.464844">FIFO Buffer</tspan></text>
</g><g
           transform="matrix(3.0012946,0,0,3.0012946,1.5006473,1.5006473)"
           id="g60"><path
             id="path62"
             style="fill:#d5e8d4;fill-opacity:1;fill-rule:nonzero;stroke:none"
             d="m 225.88,92.5 h 113.24 c 0.44821,0 0.87933,0.08576 1.29342,0.257286 0.41409,0.171516 0.77963,0.415749 1.09659,0.732689 0.31692,0.316933 0.56113,0.682449 0.73267,1.096542 0.17154,0.414101 0.25729,0.845261 0.25732,1.29348 V 111.62 c -3e-5,0.44821 -0.0858,0.87937 -0.25732,1.29346 -0.17154,0.41409 -0.41575,0.77961 -0.73267,1.09655 -0.31696,0.31693 -0.6825,0.56116 -1.09659,0.73269 -0.41409,0.17152 -0.84521,0.25729 -1.29342,0.2573 H 225.88 c -0.44822,-1e-5 -0.8794,-0.0858 -1.29351,-0.2573 -0.4141,-0.17153 -0.77961,-0.41576 -1.09653,-0.73269 -0.31696,-0.31694 -0.56119,-0.68246 -0.7327,-1.09656 -0.17152,-0.41408 -0.25728,-0.84524 -0.25726,-1.29345 V 95.879997 c -2e-5,-0.448219 0.0857,-0.879379 0.25726,-1.29348 0.17151,-0.414093 0.41574,-0.779609 0.7327,-1.096542 0.31692,-0.31694 0.68243,-0.561173 1.09653,-0.732689 C 225.0006,92.585762 225.43178,92.5 225.88,92.5 Z" /><path
             id="path64"
             style="fill:none;stroke:#82b366;stroke-width:1;stroke-linecap:butt;stroke-linejoin:miter;stroke-miterlimit:10;stroke-dasharray:none;stroke-opacity:1"
             d="m 225.88,92.5 h 113.24 c 0.44821,0 0.87933,0.08576 1.29342,0.257286 0.41409,0.171516 0.77963,0.415749 1.09659,0.732689 0.31692,0.316933 0.56113,0.682449 0.73267,1.096542 0.17154,0.414101 0.25729,0.845261 0.25732,1.29348 V 111.62 c -3e-5,0.44821 -0.0858,0.87937 -0.25732,1.29346 -0.17154,0.41409 -0.41575,0.77961 -0.73267,1.09655 -0.31696,0.31693 -0.6825,0.56116 -1.09659,0.73269 -0.41409,0.17152 -0.84521,0.25729 -1.29342,0.2573 H 225.88 c -0.44822,-1e-5 -0.8794,-0.0858 -1.29351,-0.2573 -0.4141,-0.17153 -0.77961,-0.41576 -1.09653,-0.73269 -0.31696,-0.31694 -0.56119,-0.68246 -0.7327,-1.09656 -0.17152,-0.41408 -0.25728,-0.84524 -0.25726,-1.29345 V 95.879997 c -2e-5,-0.448219 0.0857,-0.879379 0.25726,-1.29348 0.17151,-0.414093 0.41574,-0.779609 0.7327,-1.096542 0.31692,-0.31694 0.68243,-0.561173 1.09653,-0.732689 C 225.0006,92.585762 225.43178,92.5 225.88,92.5 Z" /></g><g
           transform="scale(3.0012946)"
           id="g66"><text
             id="text70"
             style="font-variant:normal;font-weight:normal;font-size:12px;font-family:ArialMT;-inkscape-font-specification:ArialMT;writing-mode:lr-tb;fill:#000000;fill-opacity:1;fill-rule:nonzero;stroke:none"
             transform="translate(226.07813,108)"><tspan
               id="tspan68"
               y="0"
               x="0 8.0039062 14.677734 21.351562 24.017578 30.691406 34.025391 42.029297 45.363281 49.359375 56.033203 62.707031 72.703125 75.820312 83.150391 89.824219 93.820312 100.49414 107.16797">Audio Stream Thread</tspan></text>
</g><g
           transform="matrix(3.0012946,0,0,3.0012946,1.5006473,1.5006473)"
           id="g72"><path
             id="path74"
             style="fill:#fff2cc;fill-opacity:1;fill-rule:nonzero;stroke:none"
             d="m 216.44,123.75 h 122.12 c 0.52246,0 1.02502,0.1 1.50772,0.2999 0.4827,0.19994 0.90878,0.48463 1.27826,0.85408 0.36941,0.36945 0.65411,0.79553 0.85409,1.27823 0.19992,0.48271 0.2999,0.98531 0.29993,1.50779 v 18.37 c -3e-5,0.52246 -0.10001,1.02504 -0.29993,1.50775 -0.19992,0.48271 -0.48462,0.90878 -0.85406,1.27824 -0.36948,0.36943 -0.79556,0.65413 -1.27829,0.85407 -0.4827,0.19993 -0.98526,0.29992 -1.50772,0.29994 H 216.44 c -0.52247,-2e-5 -1.02508,-0.10001 -1.50779,-0.29994 -0.4827,-0.19994 -0.90877,-0.48464 -1.27822,-0.85407 -0.36946,-0.36946 -0.65416,-0.79553 -0.85411,-1.27824 -0.19993,-0.48271 -0.2999,-0.98529 -0.29988,-1.50775 v -18.37 c -2e-5,-0.52248 0.1,-1.02508 0.2999,-1.50779 0.19993,-0.4827 0.48463,-0.90878 0.85409,-1.27823 0.36945,-0.36945 0.79552,-0.65414 1.27822,-0.85408 0.48271,-0.19993 0.98532,-0.2999 1.50779,-0.2999 z" /><path
             id="path76"
             style="fill:none;stroke:#d6b656;stroke-width:1;stroke-linecap:butt;stroke-linejoin:miter;stroke-miterlimit:10;stroke-dasharray:none;stroke-opacity:1"
             d="m 216.44,123.75 h 122.12 c 0.52246,0 1.02502,0.1 1.50772,0.2999 0.4827,0.19994 0.90878,0.48463 1.27826,0.85408 0.36941,0.36945 0.65411,0.79553 0.85409,1.27823 0.19992,0.48271 0.2999,0.98531 0.29993,1.50779 v 18.37 c -3e-5,0.52246 -0.10001,1.02504 -0.29993,1.50775 -0.19992,0.48271 -0.48462,0.90878 -0.85406,1.27824 -0.36948,0.36943 -0.79556,0.65413 -1.27829,0.85407 -0.4827,0.19993 -0.98526,0.29992 -1.50772,0.29994 H 216.44 c -0.52247,-2e-5 -1.02508,-0.10001 -1.50779,-0.29994 -0.4827,-0.19994 -0.90877,-0.48464 -1.27822,-0.85407 -0.36946,-0.36946 -0.65416,-0.79553 -0.85411,-1.27824 -0.19993,-0.48271 -0.2999,-0.98529 -0.29988,-1.50775 v -18.37 c -2e-5,-0.52248 0.1,-1.02508 0.2999,-1.50779 0.19993,-0.4827 0.48463,-0.90878 0.85409,-1.27823 0.36945,-0.36945 0.79552,-0.65414 1.27822,-0.85408 0.48271,-0.19993 0.98532,-0.2999 1.50779,-0.2999 z" /></g><g
           transform="scale(3.0012946)"
           id="g78"><text
             id="text82"
             style="font-variant:normal;font-weight:normal;font-size:12px;font-family:ArialMT;-inkscape-font-specification:ArialMT;writing-mode:lr-tb;fill:#000000;fill-opacity:1;fill-rule:nonzero;stroke:none"
             transform="translate(217.07813,141)"><tspan
               id="tspan80"
               y="0"
               x="0 8.6660156 15.339844 22.013672 25.347656 29.34375 36.017578 38.683594 42.017578 50.021484 53.355469 57.351562 64.025391 70.699219 80.695312 83.8125 91.142578 97.816406 101.8125 108.48633 115.16016">Control Stream Thread</tspan></text>
<text
             id="text86"
             style="font-variant:normal;font-weight:normal;font-size:12px;font-family:ArialMT;-inkscape-font-specification:ArialMT;writing-mode:lr-tb;fill:#000000;fill-opacity:1;fill-rule:nonzero;stroke:none"
             transform="translate(195.6875,79)"><tspan
               id="tspan84"
               y="0"
               x="0 8.6660156 15.339844 21.339844 24.673828 27.345703 35.349609 42.023438 48.697266 52.03125 56.027344 63.814453 66.480469 70.476562 73.810547 80.484375 87.158203 89.824219 93.158203 101.16211 104.2793 107.61328 114.28711 120.28711 123.62109">Host App (Virtual Effect)</tspan></text>
</g><g
           transform="matrix(3.0012946,0,0,3.0012946,1.5006473,1.5006473)"
           id="g88"><path
             id="path90"
             style="fill:#dae8fc;fill-opacity:1;fill-rule:nonzero;stroke:none"
             d="m 532.5,50 h 175 c 0.73694,0 1.47211,0.03611 2.20544,0.108345 0.73334,0.07223 1.46137,0.180222 2.18409,0.323982 0.72271,0.143765 1.4367,0.322605 2.1419,0.536515 0.70514,0.213913 1.39814,0.461868 2.07886,0.743866 0.68085,0.282001 1.34619,0.596691 1.99609,0.944065 0.64991,0.347374 1.28119,0.725757 1.89393,1.135154 0.61273,0.409405 1.20385,0.847847 1.77349,1.315335 0.56964,0.467487 1.11499,0.961765 1.63605,1.482834 0.52112,0.521068 1.01538,1.066421 1.48285,1.636055 0.46747,0.569633 0.90595,1.160804 1.31531,1.773513 0.40948,0.612717 0.7879,1.244019 1.13525,1.89391 0.34735,0.649891 0.66205,1.315239 0.94397,1.996044 0.28204,0.680809 0.53003,1.373802 0.74396,2.078972 0.21393,0.705169 0.39276,1.419128 0.5365,2.141868 0.14374,0.722748 0.25177,1.450798 0.32403,2.184159 C 729.96393,71.027969 730.00006,71.7631 730,72.5 v 105 c 6e-5,0.73689 -0.0361,1.47203 -0.10828,2.20538 -0.0723,0.73336 -0.18029,1.4614 -0.32403,2.18413 -0.14374,0.72276 -0.32257,1.43672 -0.53644,2.14189 -0.21393,0.70517 -0.46191,1.39817 -0.74396,2.07897 -0.28198,0.68081 -0.59668,1.34617 -0.94403,1.99606 -0.34735,0.64989 -0.72571,1.28117 -1.13519,1.89389 -0.40942,0.61272 -0.8479,1.20389 -1.31537,1.77353 -0.46747,0.56963 -0.96173,1.11497 -1.48285,1.63605 -0.52106,0.52107 -1.06641,1.01535 -1.63605,1.48283 -0.56964,0.46748 -1.16076,0.90592 -1.77349,1.31531 -0.61274,0.40941 -1.24402,0.78781 -1.89386,1.13518 -0.64997,0.34736 -1.31531,0.66204 -1.99616,0.94404 -0.68072,0.28201 -1.37372,0.52997 -2.07892,0.74387 -0.7052,0.21391 -1.41919,0.39276 -2.1419,0.53651 -0.72272,0.14377 -1.45075,0.25177 -2.18409,0.32401 C 708.97205,199.96388 708.23694,200 707.5,200 h -175 c -0.73688,0 -1.47205,-0.0361 -2.20538,-0.10835 -0.73334,-0.0722 -1.46143,-0.18024 -2.18421,-0.32401 -0.72271,-0.14375 -1.43664,-0.32258 -2.14184,-0.5365 -0.70514,-0.21391 -1.39814,-0.46187 -2.07898,-0.74388 -0.68079,-0.282 -1.34613,-0.59666 -1.99604,-0.94403 -0.64996,-0.34738 -1.28125,-0.72577 -1.89398,-1.13518 -0.61261,-0.40939 -1.20379,-0.84784 -1.77343,-1.31532 -0.56965,-0.46748 -1.11499,-0.96176 -1.63605,-1.48283 -0.52106,-0.52108 -1.01532,-1.06642 -1.48279,-1.63607 -0.46747,-0.56962 -0.90595,-1.16081 -1.31537,-1.77352 -0.40936,-0.61271 -0.78778,-1.24401 -1.13513,-1.8939 -0.34735,-0.64988 -0.66208,-1.31523 -0.94412,-1.99606 -0.28202,-0.6808 -0.52994,-1.37379 -0.74384,-2.07895 -0.2139,-0.70518 -0.39276,-1.41914 -0.53653,-2.14189 -0.14374,-0.72273 -0.25171,-1.45077 -0.32394,-2.18413 C 510.03613,178.97203 510.00003,178.23689 510,177.5 v -105 c 3e-5,-0.7369 0.0361,-1.472031 0.10834,-2.205383 0.0722,-0.733361 0.1802,-1.461411 0.32394,-2.184159 0.14377,-0.72274 0.32263,-1.436699 0.53653,-2.141868 0.2139,-0.70517 0.46185,-1.398163 0.74387,-2.078972 0.28204,-0.680805 0.59677,-1.346153 0.94412,-1.996044 0.34735,-0.649891 0.72577,-1.281193 1.13513,-1.89391 0.40942,-0.612709 0.8479,-1.20388 1.31537,-1.773513 0.46747,-0.569634 0.96173,-1.114987 1.48279,-1.636055 0.52106,-0.521069 1.0664,-1.015343 1.63605,-1.482831 0.56964,-0.467487 1.16082,-0.905933 1.77343,-1.315338 0.61273,-0.409397 1.24402,-0.78778 1.89398,-1.135154 0.64991,-0.347374 1.31525,-0.662064 1.99604,-0.944065 0.68084,-0.281998 1.37384,-0.529953 2.07898,-0.743863 0.7052,-0.213913 1.41913,-0.392753 2.14184,-0.536518 0.72278,-0.14376 1.45087,-0.251754 2.18421,-0.323978 C 531.02795,50.036118 531.76312,50 532.5,50 Z" /><path
             id="path92"
             style="fill:none;stroke:#6c8ebf;stroke-width:1;stroke-linecap:butt;stroke-linejoin:miter;stroke-miterlimit:10;stroke-dasharray:none;stroke-opacity:1"
             d="m 532.5,50 h 175 c 0.73694,0 1.47211,0.03611 2.20544,0.108345 0.73334,0.07223 1.46137,0.180222 2.18409,0.323982 0.72271,0.143765 1.4367,0.322605 2.1419,0.536515 0.70514,0.213913 1.39814,0.461868 2.07886,0.743866 0.68085,0.282001 1.34619,0.596691 1.99609,0.944065 0.64991,0.347374 1.28119,0.725757 1.89393,1.135154 0.61273,0.409405 1.20385,0.847847 1.77349,1.315335 0.56964,0.467487 1.11499,0.961765 1.63605,1.482834 0.52112,0.521068 1.01538,1.066421 1.48285,1.636055 0.46747,0.569633 0.90595,1.160804 1.31531,1.773513 0.40948,0.612717 0.7879,1.244019 1.13525,1.89391 0.34735,0.649891 0.66205,1.315239 0.94397,1.996044 0.28204,0.680809 0.53003,1.373802 0.74396,2.078972 0.21393,0.705169 0.39276,1.419128 0.5365,2.141868 0.14374,0.722748 0.25177,1.450798 0.32403,2.184159 C 729.96393,71.027969 730.00006,71.7631 730,72.5 v 105 c 6e-5,0.73689 -0.0361,1.47203 -0.10828,2.20538 -0.0723,0.73336 -0.18029,1.4614 -0.32403,2.18413 -0.14374,0.72276 -0.32257,1.43672 -0.53644,2.14189 -0.21393,0.70517 -0.46191,1.39817 -0.74396,2.07897 -0.28198,0.68081 -0.59668,1.34617 -0.94403,1.99606 -0.34735,0.64989 -0.72571,1.28117 -1.13519,1.89389 -0.40942,0.61272 -0.8479,1.20389 -1.31537,1.77353 -0.46747,0.56963 -0.96173,1.11497 -1.48285,1.63605 -0.52106,0.52107 -1.06641,1.01535 -1.63605,1.48283 -0.56964,0.46748 -1.16076,0.90592 -1.77349,1.31531 -0.61274,0.40941 -1.24402,0.78781 -1.89386,1.13518 -0.64997,0.34736 -1.31531,0.66204 -1.99616,0.94404 -0.68072,0.28201 -1.37372,0.52997 -2.07892,0.74387 -0.7052,0.21391 -1.41919,0.39276 -2.1419,0.53651 -0.72272,0.14377 -1.45075,0.25177 -2.18409,0.32401 C 708.97205,199.96388 708.23694,200 707.5,200 h -175 c -0.73688,0 -1.47205,-0.0361 -2.20538,-0.10835 -0.73334,-0.0722 -1.46143,-0.18024 -2.18421,-0.32401 -0.72271,-0.14375 -1.43664,-0.32258 -2.14184,-0.5365 -0.70514,-0.21391 -1.39814,-0.46187 -2.07898,-0.74388 -0.68079,-0.282 -1.34613,-0.59666 -1.99604,-0.94403 -0.64996,-0.34738 -1.28125,-0.72577 -1.89398,-1.13518 -0.61261,-0.40939 -1.20379,-0.84784 -1.77343,-1.31532 -0.56965,-0.46748 -1.11499,-0.96176 -1.63605,-1.48283 -0.52106,-0.52108 -1.01532,-1.06642 -1.48279,-1.63607 -0.46747,-0.56962 -0.90595,-1.16081 -1.31537,-1.77352 -0.40936,-0.61271 -0.78778,-1.24401 -1.13513,-1.8939 -0.34735,-0.64988 -0.66208,-1.31523 -0.94412,-1.99606 -0.28202,-0.6808 -0.52994,-1.37379 -0.74384,-2.07895 -0.2139,-0.70518 -0.39276,-1.41914 -0.53653,-2.14189 -0.14374,-0.72273 -0.25171,-1.45077 -0.32394,-2.18413 C 510.03613,178.97203 510.00003,178.23689 510,177.5 v -105 c 3e-5,-0.7369 0.0361,-1.472031 0.10834,-2.205383 0.0722,-0.733361 0.1802,-1.461411 0.32394,-2.184159 0.14377,-0.72274 0.32263,-1.436699 0.53653,-2.141868 0.2139,-0.70517 0.46185,-1.398163 0.74387,-2.078972 0.28204,-0.680805 0.59677,-1.346153 0.94412,-1.996044 0.34735,-0.649891 0.72577,-1.281193 1.13513,-1.89391 0.40942,-0.612709 0.8479,-1.20388 1.31537,-1.773513 0.46747,-0.569634 0.96173,-1.114987 1.48279,-1.636055 0.52106,-0.521069 1.0664,-1.015343 1.63605,-1.482831 0.56964,-0.467487 1.16082,-0.905933 1.77343,-1.315338 0.61273,-0.409397 1.24402,-0.78778 1.89398,-1.135154 0.64991,-0.347374 1.31525,-0.662064 1.99604,-0.944065 0.68084,-0.281998 1.37384,-0.529953 2.07898,-0.743863 0.7052,-0.213913 1.41913,-0.392753 2.14184,-0.536518 0.72278,-0.14376 1.45087,-0.251754 2.18421,-0.323978 C 531.02795,50.036118 531.76312,50 532.5,50 Z" /><path
             id="path94"
             style="fill:#e1d5e7;fill-opacity:1;fill-rule:nonzero;stroke:none"
             d="m 659.13,90 h 61.74 c 0.54766,0 1.07446,0.10479 1.58038,0.314377 0.50598,0.209572 0.95264,0.507995 1.3399,0.895264 0.38727,0.38726 0.68567,0.833877 0.89527,1.339859 0.20959,0.505989 0.31439,1.032821 0.31445,1.580497 L 725,113.37 c -6e-5,0.54766 -0.10486,1.07449 -0.31445,1.58047 -0.2096,0.50598 -0.508,0.95261 -0.89527,1.33987 -0.38726,0.38727 -0.83392,0.68568 -1.33984,0.89527 -0.50598,0.20959 -1.03278,0.31438 -1.58044,0.31439 h -61.74 c -0.54772,-1e-5 -1.07458,-0.1048 -1.58056,-0.31439 -0.50592,-0.20959 -0.95252,-0.508 -1.33978,-0.89527 -0.38733,-0.38726 -0.6858,-0.83389 -0.89539,-1.33987 C 655.10474,114.44449 654.99994,113.91766 655,113.37 V 94.129997 c -6e-5,-0.547676 0.10474,-1.074508 0.31427,-1.580497 0.20959,-0.505982 0.50806,-0.952599 0.89539,-1.339859 0.38726,-0.387269 0.83386,-0.685692 1.33984,-0.895272 C 658.05542,90.10479 658.58228,90 659.13,90 Z" /><path
             id="path96"
             style="fill:none;stroke:#9673a6;stroke-width:1;stroke-linecap:butt;stroke-linejoin:miter;stroke-miterlimit:10;stroke-dasharray:none;stroke-opacity:1"
             d="m 659.13,90 h 61.74 c 0.54766,0 1.07446,0.10479 1.58038,0.314377 0.50598,0.209572 0.95264,0.507995 1.3399,0.895264 0.38727,0.38726 0.68567,0.833877 0.89527,1.339859 0.20959,0.505989 0.31439,1.032821 0.31445,1.580497 L 725,113.37 c -6e-5,0.54766 -0.10486,1.07449 -0.31445,1.58047 -0.2096,0.50598 -0.508,0.95261 -0.89527,1.33987 -0.38726,0.38727 -0.83392,0.68568 -1.33984,0.89527 -0.50598,0.20959 -1.03278,0.31438 -1.58044,0.31439 h -61.74 c -0.54772,-1e-5 -1.07458,-0.1048 -1.58056,-0.31439 -0.50592,-0.20959 -0.95252,-0.508 -1.33978,-0.89527 -0.38733,-0.38726 -0.6858,-0.83389 -0.89539,-1.33987 C 655.10474,114.44449 654.99994,113.91766 655,113.37 V 94.129997 c -6e-5,-0.547676 0.10474,-1.074508 0.31427,-1.580497 0.20959,-0.505982 0.50806,-0.952599 0.89539,-1.339859 0.38726,-0.387269 0.83386,-0.685692 1.33984,-0.895272 C 658.05542,90.10479 658.58228,90 659.13,90 Z" /></g><g
           transform="scale(3.0012946)"
           id="g98"><text
             id="text102"
             style="font-variant:normal;font-weight:normal;font-size:12px;font-family:ArialMT;-inkscape-font-specification:ArialMT;writing-mode:lr-tb;fill:#000000;fill-opacity:1;fill-rule:nonzero;stroke:none"
             transform="translate(658.76563,108)"><tspan
               id="tspan100"
               y="0"
               x="0 7.3300781 10.664062 17.994141 27.328125 30.662109 38.666016 45.339844 48.457031 51.791016 58.464844">FIFO Buffer</tspan></text>
</g><g
           transform="matrix(3.0012946,0,0,3.0012946,1.5006473,1.5006473)"
           id="g104"><path
             id="path106"
             style="fill:#d5e8d4;fill-opacity:1;fill-rule:nonzero;stroke:none"
             d="m 518.38,90 h 113.24 c 0.44818,0 0.87933,0.08576 1.29345,0.257278 0.41406,0.171524 0.77954,0.415757 1.0965,0.732689 0.31689,0.316933 0.56109,0.68245 0.73266,1.09655 0.17157,0.414101 0.25733,0.845261 0.25739,1.29348 V 109.12 c -6e-5,0.44821 -0.0858,0.87936 -0.25739,1.29346 -0.17157,0.41409 -0.41577,0.77961 -0.73266,1.09656 -0.31696,0.31693 -0.68244,0.56116 -1.09656,0.73268 -0.41406,0.17153 -0.84521,0.25729 -1.29339,0.2573 H 518.38 c -0.44824,-1e-5 -0.87945,-0.0858 -1.29357,-0.2573 -0.41407,-0.17152 -0.77955,-0.41575 -1.0965,-0.73268 -0.31696,-0.31695 -0.56122,-0.68247 -0.73273,-1.09656 -0.17151,-0.4141 -0.25726,-0.84525 -0.2572,-1.29346 V 93.379997 c -6e-5,-0.448219 0.0857,-0.879379 0.2572,-1.29348 0.17151,-0.4141 0.41577,-0.779617 0.73273,-1.09655 0.31695,-0.316932 0.68243,-0.561165 1.09656,-0.732689 C 517.50061,90.085762 517.93176,90 518.38,90 Z" /><path
             id="path108"
             style="fill:none;stroke:#82b366;stroke-width:1;stroke-linecap:butt;stroke-linejoin:miter;stroke-miterlimit:10;stroke-dasharray:none;stroke-opacity:1"
             d="m 518.38,90 h 113.24 c 0.44818,0 0.87933,0.08576 1.29345,0.257278 0.41406,0.171524 0.77954,0.415757 1.0965,0.732689 0.31689,0.316933 0.56109,0.68245 0.73266,1.09655 0.17157,0.414101 0.25733,0.845261 0.25739,1.29348 V 109.12 c -6e-5,0.44821 -0.0858,0.87936 -0.25739,1.29346 -0.17157,0.41409 -0.41577,0.77961 -0.73266,1.09656 -0.31696,0.31693 -0.68244,0.56116 -1.09656,0.73268 -0.41406,0.17153 -0.84521,0.25729 -1.29339,0.2573 H 518.38 c -0.44824,-1e-5 -0.87945,-0.0858 -1.29357,-0.2573 -0.41407,-0.17152 -0.77955,-0.41575 -1.0965,-0.73268 -0.31696,-0.31695 -0.56122,-0.68247 -0.73273,-1.09656 -0.17151,-0.4141 -0.25726,-0.84525 -0.2572,-1.29346 V 93.379997 c -6e-5,-0.448219 0.0857,-0.879379 0.2572,-1.29348 0.17151,-0.4141 0.41577,-0.779617 0.73273,-1.09655 0.31695,-0.316932 0.68243,-0.561165 1.09656,-0.732689 C 517.50061,90.085762 517.93176,90 518.38,90 Z" /></g><g
           transform="scale(3.0012946)"
           id="g110"><text
             id="text114"
             style="font-variant:normal;font-weight:normal;font-size:12px;font-family:ArialMT;-inkscape-font-specification:ArialMT;writing-mode:lr-tb;fill:#000000;fill-opacity:1;fill-rule:nonzero;stroke:none"
             transform="translate(518.07813,105)"><tspan
               id="tspan112"
               y="0"
               x="0 8.0039062 14.677734 21.351562 24.017578 30.691406 34.025391 42.029297 45.363281 49.359375 56.033203 62.707031 72.703125 75.820312 83.150391 89.824219 93.820312 100.49414 107.16797">Audio Stream Thread</tspan></text>
</g><g
           transform="matrix(3.0012946,0,0,3.0012946,1.5006473,1.5006473)"
           id="g116"><path
             id="path118"
             style="fill:#fff2cc;fill-opacity:1;fill-rule:nonzero;stroke:none"
             d="m 518.38,123.75 h 123.24 c 0.44818,0 0.87933,0.0858 1.29339,0.25727 0.41412,0.17153 0.7796,0.41577 1.09656,0.7327 0.31695,0.31693 0.56116,0.68245 0.73266,1.09655 0.17157,0.4141 0.25733,0.84526 0.25739,1.29348 v 15.73999 c -6e-5,0.44822 -0.0858,0.87937 -0.25739,1.29346 -0.1715,0.41411 -0.41571,0.77962 -0.73266,1.09656 -0.31696,0.31692 -0.6825,0.56116 -1.09662,0.73268 -0.414,0.17152 -0.84515,0.25729 -1.29333,0.25731 H 518.38 c -0.44824,-2e-5 -0.87945,-0.0858 -1.29357,-0.25731 -0.41407,-0.17152 -0.77955,-0.41576 -1.0965,-0.73268 -0.31696,-0.31694 -0.56122,-0.68245 -0.73273,-1.09656 -0.17151,-0.41409 -0.25726,-0.84524 -0.2572,-1.29346 V 127.13 c -6e-5,-0.44822 0.0857,-0.87938 0.2572,-1.29348 0.17151,-0.4141 0.41577,-0.77962 0.73273,-1.09655 0.31695,-0.31693 0.68243,-0.56117 1.09656,-0.7327 0.41412,-0.17152 0.84527,-0.25727 1.29351,-0.25727 z" /><path
             id="path120"
             style="fill:none;stroke:#d6b656;stroke-width:1;stroke-linecap:butt;stroke-linejoin:miter;stroke-miterlimit:10;stroke-dasharray:none;stroke-opacity:1"
             d="m 518.38,123.75 h 123.24 c 0.44818,0 0.87933,0.0858 1.29339,0.25727 0.41412,0.17153 0.7796,0.41577 1.09656,0.7327 0.31695,0.31693 0.56116,0.68245 0.73266,1.09655 0.17157,0.4141 0.25733,0.84526 0.25739,1.29348 v 15.73999 c -6e-5,0.44822 -0.0858,0.87937 -0.25739,1.29346 -0.1715,0.41411 -0.41571,0.77962 -0.73266,1.09656 -0.31696,0.31692 -0.6825,0.56116 -1.09662,0.73268 -0.414,0.17152 -0.84515,0.25729 -1.29333,0.25731 H 518.38 c -0.44824,-2e-5 -0.87945,-0.0858 -1.29357,-0.25731 -0.41407,-0.17152 -0.77955,-0.41576 -1.0965,-0.73268 -0.31696,-0.31694 -0.56122,-0.68245 -0.73273,-1.09656 -0.17151,-0.41409 -0.25726,-0.84524 -0.2572,-1.29346 V 127.13 c -6e-5,-0.44822 0.0857,-0.87938 0.2572,-1.29348 0.17151,-0.4141 0.41577,-0.77962 0.73273,-1.09655 0.31695,-0.31693 0.68243,-0.56117 1.09656,-0.7327 0.41412,-0.17152 0.84527,-0.25727 1.29351,-0.25727 z" /></g><g
           transform="scale(3.0012946)"
           id="g122"><text
             id="text126"
             style="font-variant:normal;font-weight:normal;font-size:12px;font-family:ArialMT;-inkscape-font-specification:ArialMT;writing-mode:lr-tb;fill:#000000;fill-opacity:1;fill-rule:nonzero;stroke:none"
             transform="translate(519.07813,139)"><tspan
               id="tspan124"
               y="0"
               x="0 8.6660156 15.339844 22.013672 25.347656 29.34375 36.017578 38.683594 42.017578 50.021484 53.355469 57.351562 64.025391 70.699219 80.695312 83.8125 91.142578 97.816406 101.8125 108.48633 115.16016">Control Stream Thread</tspan></text>
<text
             id="text130"
             style="font-variant:normal;font-weight:normal;font-size:12px;font-family:ArialMT;-inkscape-font-specification:ArialMT;writing-mode:lr-tb;fill:#000000;fill-opacity:1;fill-rule:nonzero;stroke:none"
             transform="translate(554.10938,79)"><tspan
               id="tspan128"
               y="0"
               x="0 8.6660156 11.332031 13.998047 20.671875 27.345703 30.679688 33.351562 41.355469 48.029297 54.703125 58.037109 62.033203 70.037109 73.371094 80.044922 86.71875 93.392578 96.064453 104.06836 106.73438 113.4082 120.08203 126.75586">Client App (Stand Alone)</tspan></text>
</g><g
           transform="matrix(3.0012946,0,0,3.0012946,1.5006473,1.5006473)"
           id="g132"><path
             id="path134"
             style="fill:none;stroke:#000000;stroke-width:1;stroke-linecap:butt;stroke-linejoin:miter;stroke-miterlimit:10;stroke-dasharray:none;stroke-opacity:1"
             d="m 635,103.13 13.64001,0.42" /><path
             id="path136"
             style="fill:#000000;fill-opacity:1;fill-rule:nonzero;stroke:none"
             d="m 653.88,103.72 -7.09997,3.27 1.85998,-3.44 L 647,100 Z" /><path
             id="path138"
             style="fill:none;stroke:#000000;stroke-width:1;stroke-linecap:butt;stroke-linejoin:miter;stroke-miterlimit:10;stroke-dasharray:none;stroke-opacity:1"
             d="m 653.88,103.72 -7.09997,3.27 1.85998,-3.44 L 647,100 Z" /><path
             id="path140"
             style="fill:none;stroke:#000000;stroke-width:1;stroke-linecap:butt;stroke-linejoin:miter;stroke-miterlimit:10;stroke-dasharray:none;stroke-opacity:1"
             d="m 342.5,103.1 166.13,-1.78" /><path
             id="path142"
             style="fill:#000000;fill-opacity:1;fill-rule:nonzero;stroke:none"
             d="m 513.88,101.26 -6.95999,3.58 1.70999,-3.52 -1.79,-3.480004 z" /><path
             id="path144"
             style="fill:none;stroke:#000000;stroke-width:1;stroke-linecap:butt;stroke-linejoin:miter;stroke-miterlimit:10;stroke-dasharray:none;stroke-opacity:1"
             d="m 513.88,101.26 -6.95999,3.58 1.70999,-3.52 -1.79,-3.480004 z" /><path
             id="path146"
             style="fill:none;stroke:#000000;stroke-width:1;stroke-linecap:butt;stroke-linejoin:miter;stroke-miterlimit:10;stroke-dasharray:none;stroke-opacity:1"
             d="M 348.87,136.82001 508.63,135.56" /><path
             id="path148"
             style="fill:#000000;fill-opacity:1;fill-rule:nonzero;stroke:none"
             d="m 343.62,136.86999 6.97,-3.55999 -1.72,3.51001 1.77999,3.48999 z" /><path
             id="path150"
             style="fill:none;stroke:#000000;stroke-width:1;stroke-linecap:butt;stroke-linejoin:miter;stroke-miterlimit:10;stroke-dasharray:none;stroke-opacity:1"
             d="m 343.62,136.86999 6.97,-3.55999 -1.72,3.51001 1.77999,3.48999 z" /><path
             id="path152"
             style="fill:#000000;fill-opacity:1;fill-rule:nonzero;stroke:none"
             d="m 513.88,135.52 -6.97,3.56 1.72,-3.52 -1.77999,-3.48 z" /><path
             id="path154"
             style="fill:none;stroke:#000000;stroke-width:1;stroke-linecap:butt;stroke-linejoin:miter;stroke-miterlimit:10;stroke-dasharray:none;stroke-opacity:1"
             d="m 513.88,135.52 -6.97,3.56 1.72,-3.52 -1.77999,-3.48 z" /><path
             id="path156"
             style="fill:none;stroke:#000000;stroke-width:1;stroke-linecap:butt;stroke-linejoin:miter;stroke-miterlimit:10;stroke-dasharray:none;stroke-opacity:1"
             d="M 172.5,146.25 V 123.87" /><path
             id="path158"
             style="fill:#000000;fill-opacity:1;fill-rule:nonzero;stroke:none"
             d="m 172.5,118.62 3.5,7 -3.5,-1.75 -3.5,1.75 z" /><path
             id="path160"
             style="fill:none;stroke:#000000;stroke-width:1;stroke-linecap:butt;stroke-linejoin:miter;stroke-miterlimit:10;stroke-dasharray:none;stroke-opacity:1"
             d="m 172.5,118.62 3.5,7 -3.5,-1.75 -3.5,1.75 z" /><path
             id="path162"
             style="fill:#ffe6cc;fill-opacity:1;fill-rule:nonzero;stroke:none"
             d="m 141.63,146.25 h 61.74 c 0.54765,0 1.07447,0.10478 1.58045,0.31436 0.50599,0.20958 0.95261,0.50801 1.33989,0.89528 0.38726,0.38725 0.68569,0.83388 0.89527,1.33986 0.20958,0.506 0.31437,1.03282 0.31439,1.5805 v 19.24 c -2e-5,0.54766 -0.10481,1.07449 -0.31439,1.58045 -0.20958,0.506 -0.50801,0.95263 -0.89527,1.33989 -0.38728,0.38726 -0.8339,0.68567 -1.33987,0.89527 -0.506,0.20958 -1.03282,0.31437 -1.58047,0.31439 h -61.74 c -0.54768,-2e-5 -1.07452,-0.10481 -1.5805,-0.31439 -0.50598,-0.2096 -0.95261,-0.50801 -1.33986,-0.89527 -0.38727,-0.38726 -0.6857,-0.83389 -0.89528,-1.33989 -0.20958,-0.50596 -0.31438,-1.03279 -0.31436,-1.58045 v -19.24 c -2e-5,-0.54768 0.10478,-1.0745 0.31436,-1.5805 0.20958,-0.50598 0.50801,-0.95261 0.89528,-1.33986 0.38725,-0.38727 0.83388,-0.6857 1.33986,-0.89528 0.50598,-0.20958 1.03282,-0.31436 1.5805,-0.31436 z" /><path
             id="path164"
             style="fill:none;stroke:#d79b00;stroke-width:1;stroke-linecap:butt;stroke-linejoin:miter;stroke-miterlimit:10;stroke-dasharray:none;stroke-opacity:1"
             d="m 141.63,146.25 h 61.74 c 0.54765,0 1.07447,0.10478 1.58045,0.31436 0.50599,0.20958 0.95261,0.50801 1.33989,0.89528 0.38726,0.38725 0.68569,0.83388 0.89527,1.33986 0.20958,0.506 0.31437,1.03282 0.31439,1.5805 v 19.24 c -2e-5,0.54766 -0.10481,1.07449 -0.31439,1.58045 -0.20958,0.506 -0.50801,0.95263 -0.89527,1.33989 -0.38728,0.38726 -0.8339,0.68567 -1.33987,0.89527 -0.506,0.20958 -1.03282,0.31437 -1.58047,0.31439 h -61.74 c -0.54768,-2e-5 -1.07452,-0.10481 -1.5805,-0.31439 -0.50598,-0.2096 -0.95261,-0.50801 -1.33986,-0.89527 -0.38727,-0.38726 -0.6857,-0.83389 -0.89528,-1.33989 -0.20958,-0.50596 -0.31438,-1.03279 -0.31436,-1.58045 v -19.24 c -2e-5,-0.54768 0.10478,-1.0745 0.31436,-1.5805 0.20958,-0.50598 0.50801,-0.95261 0.89528,-1.33986 0.38725,-0.38727 0.83388,-0.6857 1.33986,-0.89528 0.50598,-0.20958 1.03282,-0.31436 1.5805,-0.31436 z" /></g><g
           transform="scale(3.0012946)"
           id="g166"><text
             id="text170"
             style="font-variant:normal;font-weight:normal;font-size:12px;font-family:ArialMT;-inkscape-font-specification:ArialMT;writing-mode:lr-tb;fill:#000000;fill-opacity:1;fill-rule:nonzero;stroke:none"
             transform="translate(140.07812,157)"><tspan
               id="tspan168"
               y="0"
               x="0 8.0039062 14.677734 21.351562 24.017578 30.691406 34.025391 42.029297 48.703125 51.820312 55.154297 61.828125">Audio Buffer</tspan></text>
<text
             id="text174"
             style="font-variant:normal;font-weight:normal;font-size:12px;font-family:ArialMT;-inkscape-font-specification:ArialMT;writing-mode:lr-tb;fill:#000000;fill-opacity:1;fill-rule:nonzero;stroke:none"
             transform="translate(149.98437,172)"><tspan
               id="tspan172"
               y="0"
               x="0 8.6660156 15.339844 18.005859 20.671875 27.345703 34.019531 40.019531">Callback</tspan></text>
</g><g
           transform="matrix(3.0012946,0,0,3.0012946,1.5006473,1.5006473)"
           id="g176"><path
             id="path178"
             style="fill:#ffe6cc;fill-opacity:1;fill-rule:nonzero;stroke:none"
             d="m 659.13,146.25 h 61.74 c 0.54766,0 1.07446,0.10478 1.58038,0.31436 0.50598,0.20958 0.95264,0.50801 1.3399,0.89528 0.38727,0.38725 0.68567,0.83388 0.89527,1.33986 0.20959,0.506 0.31439,1.03282 0.31445,1.5805 v 19.24 c -6e-5,0.54766 -0.10486,1.07449 -0.31445,1.58045 -0.2096,0.506 -0.508,0.95263 -0.89527,1.33989 -0.38726,0.38726 -0.83392,0.68567 -1.33984,0.89527 -0.50598,0.20958 -1.03278,0.31437 -1.58044,0.31439 h -61.74 c -0.54772,-2e-5 -1.07458,-0.10481 -1.58056,-0.31439 -0.50592,-0.2096 -0.95252,-0.50801 -1.33978,-0.89527 -0.38733,-0.38726 -0.6858,-0.83389 -0.89539,-1.33989 C 655.10474,170.69449 654.99994,170.16766 655,169.62 v -19.24 c -6e-5,-0.54768 0.10474,-1.0745 0.31427,-1.5805 0.20959,-0.50598 0.50806,-0.95261 0.89539,-1.33986 0.38726,-0.38727 0.83386,-0.6857 1.33984,-0.89528 0.50592,-0.20958 1.03278,-0.31436 1.5805,-0.31436 z" /><path
             id="path180"
             style="fill:none;stroke:#d79b00;stroke-width:1;stroke-linecap:butt;stroke-linejoin:miter;stroke-miterlimit:10;stroke-dasharray:none;stroke-opacity:1"
             d="m 659.13,146.25 h 61.74 c 0.54766,0 1.07446,0.10478 1.58038,0.31436 0.50598,0.20958 0.95264,0.50801 1.3399,0.89528 0.38727,0.38725 0.68567,0.83388 0.89527,1.33986 0.20959,0.506 0.31439,1.03282 0.31445,1.5805 v 19.24 c -6e-5,0.54766 -0.10486,1.07449 -0.31445,1.58045 -0.2096,0.506 -0.508,0.95263 -0.89527,1.33989 -0.38726,0.38726 -0.83392,0.68567 -1.33984,0.89527 -0.50598,0.20958 -1.03278,0.31437 -1.58044,0.31439 h -61.74 c -0.54772,-2e-5 -1.07458,-0.10481 -1.58056,-0.31439 -0.50592,-0.2096 -0.95252,-0.50801 -1.33978,-0.89527 -0.38733,-0.38726 -0.6858,-0.83389 -0.89539,-1.33989 C 655.10474,170.69449 654.99994,170.16766 655,169.62 v -19.24 c -6e-5,-0.54768 0.10474,-1.0745 0.31427,-1.5805 0.20959,-0.50598 0.50806,-0.95261 0.89539,-1.33986 0.38726,-0.38727 0.83386,-0.6857 1.33984,-0.89528 0.50592,-0.20958 1.03278,-0.31436 1.5805,-0.31436 z" /></g><g
           transform="scale(3.0012946)"
           id="g182"><text
             id="text186"
             style="font-variant:normal;font-weight:normal;font-size:12px;font-family:ArialMT;-inkscape-font-specification:ArialMT;writing-mode:lr-tb;fill:#000000;fill-opacity:1;fill-rule:nonzero;stroke:none"
             transform="translate(657.07813,157)"><tspan
               id="tspan184"
               y="0"
               x="0 8.0039062 14.677734 21.351562 24.017578 30.691406 34.025391 42.029297 48.703125 51.820312 55.154297 61.828125">Audio Buffer</tspan></text>
<text
             id="text190"
             style="font-variant:normal;font-weight:normal;font-size:12px;font-family:ArialMT;-inkscape-font-specification:ArialMT;writing-mode:lr-tb;fill:#000000;fill-opacity:1;fill-rule:nonzero;stroke:none"
             transform="translate(666.98438,172)"><tspan
               id="tspan188"
               y="0"
               x="0 8.6660156 15.339844 18.005859 20.671875 27.345703 34.019531 40.019531">Callback</tspan></text>
</g><g
           transform="matrix(3.0012946,0,0,3.0012946,1.5006473,1.5006473)"
           id="g192"><path
             id="path194"
             style="fill:none;stroke:#000000;stroke-width:1;stroke-linecap:butt;stroke-linejoin:miter;stroke-miterlimit:10;stroke-dasharray:none;stroke-opacity:1"
             d="m 690,117.5 v 22.38" /><path
             id="path196"
             style="fill:#000000;fill-opacity:1;fill-rule:nonzero;stroke:none"
             d="m 690,145.13 -3.5,-7 3.5,1.75 3.5,-1.75 z" /><path
             id="path198"
             style="fill:none;stroke:#000000;stroke-width:1;stroke-linecap:butt;stroke-linejoin:miter;stroke-miterlimit:10;stroke-dasharray:none;stroke-opacity:1"
             d="m 690,145.13 -3.5,-7 3.5,1.75 3.5,-1.75 z" /></g><g
           transform="scale(3.0012946)"
           id="g200"><text
             id="text204"
             style="font-variant:normal;font-weight:normal;font-size:12px;font-family:ArialMT;-inkscape-font-specification:ArialMT;writing-mode:lr-tb;fill:#000000;fill-opacity:1;fill-rule:nonzero;stroke:none"
             transform="translate(390.92188,129)"><tspan
               id="tspan202"
               y="0"
               x="0 8.6660156 17.332031 25.119141 28.453125 37.119141 43.792969 50.466797 57.140625 63.814453 69.814453 73.148438 75.814453 82.488281">UDP Connection</tspan></text>
</g><g
           transform="matrix(3.0012946,0,0,3.0012946,1.5006473,1.5006473)"
           id="g206"><path
             id="path208"
             style="fill:#f8cecc;fill-opacity:1;fill-rule:nonzero;stroke:none"
             d="m 469,220 h 102 c 0.59094,0 1.17621,0.0576 1.7558,0.17293 0.57953,0.11528 1.14233,0.28599 1.68829,0.51214 0.54596,0.22615 1.06464,0.50338 1.55597,0.8317 0.4914,0.32831 0.94598,0.70138 1.36389,1.11925 0.41791,0.41786 0.79096,0.87245 1.11927,1.3638 0.3283,0.49136 0.60553,1.01002 0.83166,1.556 0.22614,0.54597 0.39685,1.10875 0.51215,1.68834 C 579.94232,227.82376 580,228.40904 580,229 v 42 c 0,0.59091 -0.0577,1.17618 -0.17297,1.75577 -0.1153,0.57959 -0.28601,1.14236 -0.51215,1.68832 -0.22613,0.54596 -0.50336,1.06464 -0.83166,1.556 -0.32831,0.49137 -0.70136,0.94599 -1.11927,1.36386 -0.41791,0.41785 -0.87249,0.79093 -1.36389,1.11923 -0.49133,0.32831 -1.01001,0.60553 -1.55597,0.8317 -0.54596,0.22614 -1.10876,0.39685 -1.68829,0.51215 C 572.17621,279.94235 571.59094,280 571,280 H 469 c -0.59097,0 -1.17627,-0.0577 -1.75586,-0.17297 -0.57962,-0.1153 -1.14239,-0.28601 -1.68835,-0.51215 -0.54596,-0.22617 -1.06464,-0.50339 -1.556,-0.8317 -0.49134,-0.3283 -0.94593,-0.70138 -1.36377,-1.11923 -0.41788,-0.41787 -0.79096,-0.87249 -1.11927,-1.36386 -0.32833,-0.49136 -0.60556,-1.01004 -0.83172,-1.556 -0.22617,-0.54596 -0.39685,-1.10873 -0.51212,-1.68832 C 460.05762,272.17618 459.99997,271.59091 460,271 v -42 c -3e-5,-0.59096 0.0576,-1.17624 0.17291,-1.75584 0.11527,-0.57959 0.28595,-1.14237 0.51212,-1.68834 0.22616,-0.54598 0.50339,-1.06464 0.83169,-1.556 0.32834,-0.49135 0.70142,-0.94594 1.1193,-1.3638 0.41784,-0.41787 0.87243,-0.79094 1.3638,-1.11927 0.49136,-0.3283 1.01001,-0.60553 1.55597,-0.83168 0.54596,-0.22615 1.10876,-0.39686 1.68838,-0.51214 C 467.82373,220.05765 468.40903,220 469,220 Z" /><path
             id="path210"
             style="fill:none;stroke:#b85450;stroke-width:1;stroke-linecap:butt;stroke-linejoin:miter;stroke-miterlimit:10;stroke-dasharray:none;stroke-opacity:1"
             d="m 469,220 h 102 c 0.59094,0 1.17621,0.0576 1.7558,0.17293 0.57953,0.11528 1.14233,0.28599 1.68829,0.51214 0.54596,0.22615 1.06464,0.50338 1.55597,0.8317 0.4914,0.32831 0.94598,0.70138 1.36389,1.11925 0.41791,0.41786 0.79096,0.87245 1.11927,1.3638 0.3283,0.49136 0.60553,1.01002 0.83166,1.556 0.22614,0.54597 0.39685,1.10875 0.51215,1.68834 C 579.94232,227.82376 580,228.40904 580,229 v 42 c 0,0.59091 -0.0577,1.17618 -0.17297,1.75577 -0.1153,0.57959 -0.28601,1.14236 -0.51215,1.68832 -0.22613,0.54596 -0.50336,1.06464 -0.83166,1.556 -0.32831,0.49137 -0.70136,0.94599 -1.11927,1.36386 -0.41791,0.41785 -0.87249,0.79093 -1.36389,1.11923 -0.49133,0.32831 -1.01001,0.60553 -1.55597,0.8317 -0.54596,0.22614 -1.10876,0.39685 -1.68829,0.51215 C 572.17621,279.94235 571.59094,280 571,280 H 469 c -0.59097,0 -1.17627,-0.0577 -1.75586,-0.17297 -0.57962,-0.1153 -1.14239,-0.28601 -1.68835,-0.51215 -0.54596,-0.22617 -1.06464,-0.50339 -1.556,-0.8317 -0.49134,-0.3283 -0.94593,-0.70138 -1.36377,-1.11923 -0.41788,-0.41787 -0.79096,-0.87249 -1.11927,-1.36386 -0.32833,-0.49136 -0.60556,-1.01004 -0.83172,-1.556 -0.22617,-0.54596 -0.39685,-1.10873 -0.51212,-1.68832 C 460.05762,272.17618 459.99997,271.59091 460,271 v -42 c -3e-5,-0.59096 0.0576,-1.17624 0.17291,-1.75584 0.11527,-0.57959 0.28595,-1.14237 0.51212,-1.68834 0.22616,-0.54598 0.50339,-1.06464 0.83169,-1.556 0.32834,-0.49135 0.70142,-0.94594 1.1193,-1.3638 0.41784,-0.41787 0.87243,-0.79094 1.3638,-1.11927 0.49136,-0.3283 1.01001,-0.60553 1.55597,-0.83168 0.54596,-0.22615 1.10876,-0.39686 1.68838,-0.51214 C 467.82373,220.05765 468.40903,220 469,220 Z" /></g><g
           transform="scale(3.0012946)"
           id="g212"><text
             id="text216"
             style="font-variant:normal;font-weight:normal;font-size:12px;font-family:ArialMT;-inkscape-font-specification:ArialMT;writing-mode:lr-tb;fill:#000000;fill-opacity:1;fill-rule:nonzero;stroke:none"
             transform="translate(464.96875,254)"><tspan
               id="tspan214"
               y="0"
               x="0 8.6660156 15.339844 18.005859 24.679688 30.679688 33.351562 41.355469 44.689453 54.685547 61.359375 67.359375 70.693359 79.359375 86.033203 92.707031 99.380859 106.05469">Dolby Atmos Render</tspan></text>
</g><g
           transform="matrix(3.0012946,0,0,3.0012946,1.5006473,1.5006473)"
           id="g218"><path
             id="path220"
             style="fill:#f8cecc;fill-opacity:1;fill-rule:nonzero;stroke:none"
             d="m 769,220 h 102 c 0.59094,0 1.17621,0.0576 1.7558,0.17293 0.57953,0.11528 1.14233,0.28599 1.68829,0.51214 0.54596,0.22615 1.06458,0.50338 1.55591,0.8317 0.49139,0.32831 0.94598,0.70138 1.36389,1.11925 0.41791,0.41786 0.79102,0.87245 1.11933,1.3638 0.3283,0.49136 0.60546,1.01002 0.8316,1.556 0.22613,0.54597 0.39685,1.10875 0.51215,1.68834 0.11529,0.5796 0.17297,1.16488 0.17303,1.75584 v 42 c -6e-5,0.59091 -0.0577,1.17618 -0.17303,1.75577 -0.1153,0.57959 -0.28608,1.14236 -0.51221,1.68832 -0.22608,0.54596 -0.5033,1.06464 -0.83167,1.556 -0.32824,0.49137 -0.70129,0.94599 -1.1192,1.36386 -0.41791,0.41785 -0.8725,0.79093 -1.36383,1.11923 -0.49139,0.32831 -1.01001,0.60553 -1.55597,0.8317 -0.54596,0.22614 -1.10876,0.39685 -1.68835,0.51215 C 872.17621,279.94235 871.59094,280 871,280 H 769 c -0.591,0 -1.17627,-0.0577 -1.75592,-0.17297 -0.57965,-0.1153 -1.1424,-0.28601 -1.68835,-0.51215 -0.54596,-0.22617 -1.06464,-0.50339 -1.55597,-0.8317 -0.49134,-0.3283 -0.94593,-0.70138 -1.36377,-1.11923 -0.41791,-0.41787 -0.79102,-0.87249 -1.11927,-1.36386 -0.32837,-0.49136 -0.60559,-1.01004 -0.83172,-1.556 -0.22614,-0.54596 -0.39685,-1.10873 -0.51215,-1.68832 C 760.05756,272.17618 759.99994,271.59091 760,271 v -42 c -6e-5,-0.59096 0.0576,-1.17624 0.17285,-1.75584 0.1153,-0.57959 0.28601,-1.14237 0.51215,-1.68834 0.22613,-0.54598 0.50335,-1.06464 0.83166,-1.556 0.32831,-0.49135 0.70142,-0.94594 1.11933,-1.3638 0.41784,-0.41787 0.87243,-0.79094 1.36377,-1.11927 0.49133,-0.3283 1.01001,-0.60553 1.55597,-0.83168 0.54595,-0.22615 1.1087,-0.39686 1.68835,-0.51214 C 767.82373,220.05765 768.409,220 769,220 Z" /><path
             id="path222"
             style="fill:none;stroke:#b85450;stroke-width:1;stroke-linecap:butt;stroke-linejoin:miter;stroke-miterlimit:10;stroke-dasharray:none;stroke-opacity:1"
             d="m 769,220 h 102 c 0.59094,0 1.17621,0.0576 1.7558,0.17293 0.57953,0.11528 1.14233,0.28599 1.68829,0.51214 0.54596,0.22615 1.06458,0.50338 1.55591,0.8317 0.49139,0.32831 0.94598,0.70138 1.36389,1.11925 0.41791,0.41786 0.79102,0.87245 1.11933,1.3638 0.3283,0.49136 0.60546,1.01002 0.8316,1.556 0.22613,0.54597 0.39685,1.10875 0.51215,1.68834 0.11529,0.5796 0.17297,1.16488 0.17303,1.75584 v 42 c -6e-5,0.59091 -0.0577,1.17618 -0.17303,1.75577 -0.1153,0.57959 -0.28608,1.14236 -0.51221,1.68832 -0.22608,0.54596 -0.5033,1.06464 -0.83167,1.556 -0.32824,0.49137 -0.70129,0.94599 -1.1192,1.36386 -0.41791,0.41785 -0.8725,0.79093 -1.36383,1.11923 -0.49139,0.32831 -1.01001,0.60553 -1.55597,0.8317 -0.54596,0.22614 -1.10876,0.39685 -1.68835,0.51215 C 872.17621,279.94235 871.59094,280 871,280 H 769 c -0.591,0 -1.17627,-0.0577 -1.75592,-0.17297 -0.57965,-0.1153 -1.1424,-0.28601 -1.68835,-0.51215 -0.54596,-0.22617 -1.06464,-0.50339 -1.55597,-0.8317 -0.49134,-0.3283 -0.94593,-0.70138 -1.36377,-1.11923 -0.41791,-0.41787 -0.79102,-0.87249 -1.11927,-1.36386 -0.32837,-0.49136 -0.60559,-1.01004 -0.83172,-1.556 -0.22614,-0.54596 -0.39685,-1.10873 -0.51215,-1.68832 C 760.05756,272.17618 759.99994,271.59091 760,271 v -42 c -6e-5,-0.59096 0.0576,-1.17624 0.17285,-1.75584 0.1153,-0.57959 0.28601,-1.14237 0.51215,-1.68834 0.22613,-0.54598 0.50335,-1.06464 0.83166,-1.556 0.32831,-0.49135 0.70142,-0.94594 1.11933,-1.3638 0.41784,-0.41787 0.87243,-0.79094 1.36377,-1.11927 0.49133,-0.3283 1.01001,-0.60553 1.55597,-0.83168 0.54595,-0.22615 1.1087,-0.39686 1.68835,-0.51214 C 767.82373,220.05765 768.409,220 769,220 Z" /></g><g
           transform="scale(3.0012946)"
           id="g224"><text
             id="text228"
             style="font-variant:normal;font-weight:normal;font-size:12px;font-family:ArialMT;-inkscape-font-specification:ArialMT;writing-mode:lr-tb;fill:#000000;fill-opacity:1;fill-rule:nonzero;stroke:none"
             transform="translate(764.96875,254)"><tspan
               id="tspan226"
               y="0"
               x="0 8.6660156 15.339844 18.005859 24.679688 30.679688 33.351562 41.355469 44.689453 54.685547 61.359375 67.359375 70.693359 79.359375 86.033203 92.707031 99.380859 106.05469">Dolby Atmos Render</tspan></text>
</g><g
           transform="matrix(3.0012946,0,0,3.0012946,1.5006473,1.5006473)"
           id="g230"><path
             id="path232"
             style="fill:none;stroke:#000000;stroke-width:1;stroke-linecap:butt;stroke-linejoin:miter;stroke-miterlimit:10;stroke-dasharray:none;stroke-opacity:1"
             d="m 400,240 v 10 h 53.63" /><path
             id="path234"
             style="fill:#000000;fill-opacity:1;fill-rule:nonzero;stroke:none"
             d="m 458.88,250 -7,3.5 1.75,-3.5 -1.75,-3.5 z" /><path
             id="path236"
             style="fill:none;stroke:#000000;stroke-width:1;stroke-linecap:butt;stroke-linejoin:miter;stroke-miterlimit:10;stroke-dasharray:none;stroke-opacity:1"
             d="m 458.88,250 -7,3.5 1.75,-3.5 -1.75,-3.5 z" /><path
             id="path238"
             style="fill:none;stroke:#000000;stroke-width:1;stroke-linecap:butt;stroke-linejoin:miter;stroke-miterlimit:10;stroke-dasharray:none;stroke-opacity:1"
             d="M 690,173.75 V 250 h 63.63" /><path
             id="path240"
             style="fill:#000000;fill-opacity:1;fill-rule:nonzero;stroke:none"
             d="m 758.88,250 -7,3.5 1.75,-3.5 -1.75,-3.5 z" /><path
             id="path242"
             style="fill:none;stroke:#000000;stroke-width:1;stroke-linecap:butt;stroke-linejoin:miter;stroke-miterlimit:10;stroke-dasharray:none;stroke-opacity:1"
             d="m 758.88,250 -7,3.5 1.75,-3.5 -1.75,-3.5 z" /></g><g
           transform="scale(3.0012946)"
           id="g244"><text
             id="text248"
             style="font-variant:normal;font-weight:normal;font-size:12px;font-family:ArialMT;-inkscape-font-specification:ArialMT;writing-mode:lr-tb;fill:#000000;fill-opacity:1;fill-rule:nonzero;stroke:none"
             transform="translate(133.71875,39)"><tspan
               id="tspan246"
               y="0"
               x="0 8.6660156 16.224609">DAW</tspan></text>
</g><g
           transform="matrix(3.0012946,0,0,3.0012946,1.5006473,1.5006473)"
           id="g250"><path
             id="path252"
             style="fill:#f5f5f5;fill-opacity:1;fill-rule:nonzero;stroke:none"
             d="m 49,180 h 62 c 0.59094,0 1.17621,0.0576 1.7558,0.17294 0.5796,0.11528 1.14237,0.286 1.68834,0.51215 0.54597,0.22613 1.06463,0.50336 1.55598,0.83168 0.49136,0.32831 0.94596,0.7014 1.36383,1.11926 0.41786,0.41786 0.79094,0.87247 1.11926,1.36382 0.32831,0.49135 0.60555,1.01001 0.83169,1.55598 0.22615,0.54596 0.39687,1.10874 0.51216,1.68834 0.11529,0.57959 0.17293,1.16487 0.17294,1.75583 v 42 c -1e-5,0.59094 -0.0576,1.17621 -0.17294,1.75578 -0.11529,0.57961 -0.28601,1.14238 -0.51216,1.68834 -0.22614,0.54598 -0.50338,1.06464 -0.83169,1.55599 -0.32832,0.49136 -0.7014,0.94598 -1.11926,1.36384 -0.41787,0.41786 -0.87247,0.79094 -1.36383,1.11923 -0.49135,0.32833 -1.01001,0.60557 -1.55598,0.83172 -0.54597,0.22615 -1.10874,0.39686 -1.68834,0.51216 C 112.17621,239.94234 111.59094,239.99998 111,240 H 49 c -0.590954,-2e-5 -1.176224,-0.0577 -1.755817,-0.17297 -0.579594,-0.11528 -1.142376,-0.28598 -1.68834,-0.51213 -0.545967,-0.22615 -1.064628,-0.50339 -1.55598,-0.8317 -0.491352,-0.32831 -0.945961,-0.70139 -1.363827,-1.11925 -0.417862,-0.41786 -0.790951,-0.87248 -1.11927,-1.36383 -0.328312,-0.49136 -0.605542,-1.01002 -0.831688,-1.556 -0.226147,-0.54596 -0.396862,-1.10873 -0.51215,-1.68834 C 40.05764,232.17621 39.999996,231.59094 40,231 v -42 c -4e-6,-0.59096 0.05764,-1.17624 0.172928,-1.75583 0.115288,-0.5796 0.286003,-1.14238 0.51215,-1.68834 0.226146,-0.54597 0.503376,-1.06463 0.831688,-1.55598 0.328319,-0.49135 0.701408,-0.94596 1.11927,-1.36382 0.417866,-0.41786 0.872475,-0.79095 1.363827,-1.11928 0.491356,-0.3283 1.010017,-0.60553 1.555984,-0.83168 0.545963,-0.22613 1.108742,-0.39685 1.688336,-0.51214 C 47.823776,180.05765 48.409046,180 49,180 Z" /><path
             id="path254"
             style="fill:none;stroke:#666666;stroke-width:1;stroke-linecap:butt;stroke-linejoin:miter;stroke-miterlimit:10;stroke-dasharray:none;stroke-opacity:1"
             d="m 49,180 h 62 c 0.59094,0 1.17621,0.0576 1.7558,0.17294 0.5796,0.11528 1.14237,0.286 1.68834,0.51215 0.54597,0.22613 1.06463,0.50336 1.55598,0.83168 0.49136,0.32831 0.94596,0.7014 1.36383,1.11926 0.41786,0.41786 0.79094,0.87247 1.11926,1.36382 0.32831,0.49135 0.60555,1.01001 0.83169,1.55598 0.22615,0.54596 0.39687,1.10874 0.51216,1.68834 0.11529,0.57959 0.17293,1.16487 0.17294,1.75583 v 42 c -1e-5,0.59094 -0.0576,1.17621 -0.17294,1.75578 -0.11529,0.57961 -0.28601,1.14238 -0.51216,1.68834 -0.22614,0.54598 -0.50338,1.06464 -0.83169,1.55599 -0.32832,0.49136 -0.7014,0.94598 -1.11926,1.36384 -0.41787,0.41786 -0.87247,0.79094 -1.36383,1.11923 -0.49135,0.32833 -1.01001,0.60557 -1.55598,0.83172 -0.54597,0.22615 -1.10874,0.39686 -1.68834,0.51216 C 112.17621,239.94234 111.59094,239.99998 111,240 H 49 c -0.590954,-2e-5 -1.176224,-0.0577 -1.755817,-0.17297 -0.579594,-0.11528 -1.142376,-0.28598 -1.68834,-0.51213 -0.545967,-0.22615 -1.064628,-0.50339 -1.55598,-0.8317 -0.491352,-0.32831 -0.945961,-0.70139 -1.363827,-1.11925 -0.417862,-0.41786 -0.790951,-0.87248 -1.11927,-1.36383 -0.328312,-0.49136 -0.605542,-1.01002 -0.831688,-1.556 -0.226147,-0.54596 -0.396862,-1.10873 -0.51215,-1.68834 C 40.05764,232.17621 39.999996,231.59094 40,231 v -42 c -4e-6,-0.59096 0.05764,-1.17624 0.172928,-1.75583 0.115288,-0.5796 0.286003,-1.14238 0.51215,-1.68834 0.226146,-0.54597 0.503376,-1.06463 0.831688,-1.55598 0.328319,-0.49135 0.701408,-0.94596 1.11927,-1.36382 0.417866,-0.41786 0.872475,-0.79095 1.363827,-1.11928 0.491356,-0.3283 1.010017,-0.60553 1.555984,-0.83168 0.545963,-0.22613 1.108742,-0.39685 1.688336,-0.51214 C 47.823776,180.05765 48.409046,180 49,180 Z" /></g><g
           transform="scale(3.0012946)"
           id="g256"><text
             id="text260"
             style="font-variant:normal;font-weight:normal;font-size:12px;font-family:ArialMT;-inkscape-font-specification:ArialMT;writing-mode:lr-tb;fill:#333333;fill-opacity:1;fill-rule:nonzero;stroke:none"
             transform="translate(55.65625,207)"><tspan
               id="tspan258"
               y="0"
               x="0 3.3339844 10.007812 16.681641 23.355469 26.689453 30.023438 40.019531 42.685547">Input Mix</tspan></text>
<text
             id="text264"
             style="font-variant:normal;font-weight:normal;font-size:12px;font-family:ArialMT;-inkscape-font-specification:ArialMT;writing-mode:lr-tb;fill:#333333;fill-opacity:1;fill-rule:nonzero;stroke:none"
             transform="translate(54.640625,222)"><tspan
               id="tspan262"
               y="0"
               x="0 8.6660156 15.339844 22.013672 28.6875 35.361328 42.035156 44.701172">Channels</tspan></text>
</g><g
           transform="matrix(3.0012946,0,0,3.0012946,1.5006473,1.5006473)"
           id="g266"><path
             id="path268"
             style="fill:#f5f5f5;fill-opacity:1;fill-rule:nonzero;stroke:none"
             d="m 369,180 h 62 c 0.59094,0 1.17621,0.0576 1.75577,0.17294 0.57959,0.11528 1.14236,0.286 1.68832,0.51215 0.54596,0.22613 1.06461,0.50336 1.55597,0.83168 0.49136,0.32831 0.94598,0.7014 1.36386,1.11926 0.41785,0.41786 0.79093,0.87247 1.11923,1.36382 0.32831,0.49135 0.60556,1.01001 0.83173,1.55598 0.22614,0.54596 0.39685,1.10874 0.51212,1.68834 0.11532,0.57959 0.17297,1.16487 0.173,1.75583 v 42 c -3e-5,0.59094 -0.0577,1.17621 -0.173,1.75578 -0.11527,0.57961 -0.28598,1.14238 -0.51215,1.68834 -0.22617,0.54598 -0.50339,1.06464 -0.8317,1.55599 -0.3283,0.49136 -0.70138,0.94598 -1.11923,1.36384 -0.41788,0.41786 -0.87246,0.79094 -1.36383,1.11923 -0.49136,0.32833 -1.01004,0.60557 -1.556,0.83172 -0.54596,0.22615 -1.10873,0.39686 -1.68832,0.51216 C 432.17621,239.94234 431.59094,239.99998 431,240 h -62 c -0.59097,-2e-5 -1.17624,-0.0577 -1.75586,-0.17297 -0.57959,-0.11528 -1.14236,-0.28598 -1.68832,-0.51213 -0.54596,-0.22615 -1.06461,-0.50339 -1.55594,-0.8317 -0.49137,-0.32831 -0.94599,-0.70139 -1.36383,-1.11925 -0.41788,-0.41786 -0.79096,-0.87248 -1.1193,-1.36383 -0.32833,-0.49136 -0.60556,-1.01002 -0.83169,-1.556 -0.22614,-0.54596 -0.39685,-1.10873 -0.51215,-1.68834 C 360.05765,232.17621 360,231.59094 360,231 v -42 c 0,-0.59096 0.0577,-1.17624 0.17291,-1.75583 0.1153,-0.5796 0.28601,-1.14238 0.51215,-1.68834 0.22613,-0.54597 0.50336,-1.06463 0.83166,-1.55598 0.32834,-0.49135 0.70145,-0.94596 1.11933,-1.36382 0.41784,-0.41786 0.87243,-0.79095 1.3638,-1.11928 0.49136,-0.3283 1.01001,-0.60553 1.55597,-0.83168 0.54596,-0.22613 1.10873,-0.39685 1.68832,-0.51214 C 367.82376,180.05765 368.40903,180 369,180 Z" /><path
             id="path270"
             style="fill:none;stroke:#666666;stroke-width:1;stroke-linecap:butt;stroke-linejoin:miter;stroke-miterlimit:10;stroke-dasharray:none;stroke-opacity:1"
             d="m 369,180 h 62 c 0.59094,0 1.17621,0.0576 1.75577,0.17294 0.57959,0.11528 1.14236,0.286 1.68832,0.51215 0.54596,0.22613 1.06461,0.50336 1.55597,0.83168 0.49136,0.32831 0.94598,0.7014 1.36386,1.11926 0.41785,0.41786 0.79093,0.87247 1.11923,1.36382 0.32831,0.49135 0.60556,1.01001 0.83173,1.55598 0.22614,0.54596 0.39685,1.10874 0.51212,1.68834 0.11532,0.57959 0.17297,1.16487 0.173,1.75583 v 42 c -3e-5,0.59094 -0.0577,1.17621 -0.173,1.75578 -0.11527,0.57961 -0.28598,1.14238 -0.51215,1.68834 -0.22617,0.54598 -0.50339,1.06464 -0.8317,1.55599 -0.3283,0.49136 -0.70138,0.94598 -1.11923,1.36384 -0.41788,0.41786 -0.87246,0.79094 -1.36383,1.11923 -0.49136,0.32833 -1.01004,0.60557 -1.556,0.83172 -0.54596,0.22615 -1.10873,0.39686 -1.68832,0.51216 C 432.17621,239.94234 431.59094,239.99998 431,240 h -62 c -0.59097,-2e-5 -1.17624,-0.0577 -1.75586,-0.17297 -0.57959,-0.11528 -1.14236,-0.28598 -1.68832,-0.51213 -0.54596,-0.22615 -1.06461,-0.50339 -1.55594,-0.8317 -0.49137,-0.32831 -0.94599,-0.70139 -1.36383,-1.11925 -0.41788,-0.41786 -0.79096,-0.87248 -1.1193,-1.36383 -0.32833,-0.49136 -0.60556,-1.01002 -0.83169,-1.556 -0.22614,-0.54596 -0.39685,-1.10873 -0.51215,-1.68834 C 360.05765,232.17621 360,231.59094 360,231 v -42 c 0,-0.59096 0.0577,-1.17624 0.17291,-1.75583 0.1153,-0.5796 0.28601,-1.14238 0.51215,-1.68834 0.22613,-0.54597 0.50336,-1.06463 0.83166,-1.55598 0.32834,-0.49135 0.70145,-0.94596 1.11933,-1.36382 0.41784,-0.41786 0.87243,-0.79095 1.3638,-1.11928 0.49136,-0.3283 1.01001,-0.60553 1.55597,-0.83168 0.54596,-0.22613 1.10873,-0.39685 1.68832,-0.51214 C 367.82376,180.05765 368.40903,180 369,180 Z" /></g><g
           transform="scale(3.0012946)"
           id="g272"><text
             id="text276"
             style="font-variant:normal;font-weight:normal;font-size:12px;font-family:ArialMT;-inkscape-font-specification:ArialMT;writing-mode:lr-tb;fill:#333333;fill-opacity:1;fill-rule:nonzero;stroke:none"
             transform="translate(370.98438,207)"><tspan
               id="tspan274"
               y="0"
               x="0 9.3339844 16.007812 19.341797 26.015625 32.689453 36.023438 39.357422 49.353516 52.019531">Output Mix</tspan></text>
<text
             id="text280"
             style="font-variant:normal;font-weight:normal;font-size:12px;font-family:ArialMT;-inkscape-font-specification:ArialMT;writing-mode:lr-tb;fill:#333333;fill-opacity:1;fill-rule:nonzero;stroke:none"
             transform="translate(374.64063,222)"><tspan
               id="tspan278"
               y="0"
               x="0 8.6660156 15.339844 22.013672 28.6875 35.361328 42.035156 44.701172">Channels</tspan></text>
</g><g
           transform="matrix(3.0012946,0,0,3.0012946,1.5006473,1.5006473)"
           id="g282"><path
             id="path284"
             style="fill:none;stroke:#000000;stroke-width:1;stroke-linecap:butt;stroke-linejoin:miter;stroke-miterlimit:10;stroke-dasharray:none;stroke-opacity:1"
             d="m 120,210 h 20 33 l -0.41,-29.88" /><path
             id="path286"
             style="fill:#000000;fill-opacity:1;fill-rule:nonzero;stroke:none"
             d="m 172.52,174.87 3.59,6.95001 -3.52,-1.70001 -3.48,1.8 z" /><path
             id="path288"
             style="fill:none;stroke:#000000;stroke-width:1;stroke-linecap:butt;stroke-linejoin:miter;stroke-miterlimit:10;stroke-dasharray:none;stroke-opacity:1"
             d="m 172.52,174.87 3.59,6.95001 -3.52,-1.70001 -3.48,1.8 z" /><path
             id="path290"
             style="fill:none;stroke:#000000;stroke-width:1;stroke-linecap:butt;stroke-linejoin:miter;stroke-miterlimit:10;stroke-dasharray:none;stroke-opacity:1"
             d="M 190,173.75 V 210 h 163.63" /><path
             id="path292"
             style="fill:#000000;fill-opacity:1;fill-rule:nonzero;stroke:none"
             d="m 358.88,210 -7,3.5 1.75,-3.5 -1.75,-3.5 z" /><path
             id="path294"
             style="fill:none;stroke:#000000;stroke-width:1;stroke-linecap:butt;stroke-linejoin:miter;stroke-miterlimit:10;stroke-dasharray:none;stroke-opacity:1"
             d="m 358.88,210 -7,3.5 1.75,-3.5 -1.75,-3.5 z" /></g></g></g></g></svg>