<svg xmlns="http://www.w3.org/2000/svg" xmlns:xlink="http://www.w3.org/1999/xlink" version="1.1" width="576.451" height="182.914" viewBox="0 0 576.451 182.914">
<path transform="matrix(1,0,0,-1,0,.19900513)" stroke-width=".398" stroke-linecap="butt" stroke-miterlimit="10" stroke-linejoin="miter" fill="none" stroke="#000000" d="M0 0H576.451"/>
<path transform="matrix(1,0,0,-1,0,12.354004)" stroke-width=".398" stroke-linecap="butt" stroke-miterlimit="10" stroke-linejoin="miter" fill="none" stroke="#000000" d="M0 0V11.955"/>
<text xml:space="preserve" transform="matrix(1 0 -0 1 0 182.914)" font-size="9.9626" font-family="CMR10"><tspan y="-174.147" x="53.314 60.78595 66.32516 332.44618 338.1149 342.5383 347.5196 351.39506 356.93428 360.8396 365.263">AppFeatures</tspan></text>
<path transform="matrix(1,0,0,-1,576.451,12.354004)" stroke-width=".398" stroke-linecap="butt" stroke-miterlimit="10" stroke-linejoin="miter" fill="none" stroke="#000000" d="M0 0V11.955"/>
<path transform="matrix(1,0,0,-1,0,12.553009)" stroke-width=".398" stroke-linecap="butt" stroke-miterlimit="10" stroke-linejoin="miter" fill="none" stroke="#000000" d="M0 0H576.451"/>
<path transform="matrix(1,0,0,-1,0,24.707)" stroke-width=".398" stroke-linecap="butt" stroke-miterlimit="10" stroke-linejoin="miter" fill="none" stroke="#000000" d="M0 0V11.955"/>
<path transform="matrix(1,0,0,-1,125.17,24.707)" stroke-width=".398" stroke-linecap="butt" stroke-miterlimit="10" stroke-linejoin="miter" fill="none" stroke="#000000" d="M0 0V11.955"/>
<text xml:space="preserve" transform="matrix(1 0 -0 1 0 182.914)" font-size="9.9626" font-family="CMR10"><tspan y="-161.793" x="131.147 138.47948 142.90288 147.88417 153.97133 161.16432 163.93393 172.23278 188.62126 194.84789 199.82918 203.75444 207.6797 210.44931 214.87271 218.79798 234.67836 243.81407 249.35327 252.12288 255.99834 258.76795 262.08549 269.27848 272.04808 274.81767 279.24107 284.5013 300.33189 309.4676 312.23719 320.81498 328.00798 332.98927 338.2495 342.12498 346.0303 351.0116 353.7812 378.15968 383.69889 389.2381 394.2194 398.09486 400.86445 405.84574 411.93287 419.40483 424.94404 430.48326 433.25285 466.0796 472.86415 478.1244 481.99986 485.90519 494.204 501.397 506.3783 514.6771 522.697 528.2362 533.7754 536.545 540.9684 545.9497 549.82516 552.5947 557.57608">RealTimeLosslessMulti-ClientMixControlsSpatialAudioExtraCommunication</tspan></text>
<path transform="matrix(1,0,0,-1,576.451,24.707)" stroke-width=".398" stroke-linecap="butt" stroke-miterlimit="10" stroke-linejoin="miter" fill="none" stroke="#000000" d="M0 0V11.955"/>
<path transform="matrix(1,0,0,-1,0,24.906998)" stroke-width=".398" stroke-linecap="butt" stroke-miterlimit="10" stroke-linejoin="miter" fill="none" stroke="#000000" d="M0 0H576.451"/>
<path transform="matrix(1,0,0,-1,0,26.899003)" stroke-width=".398" stroke-linecap="butt" stroke-miterlimit="10" stroke-linejoin="miter" fill="none" stroke="#000000" d="M0 0H576.451"/>
<path transform="matrix(1,0,0,-1,0,39.05301)" stroke-width=".398" stroke-linecap="butt" stroke-miterlimit="10" stroke-linejoin="miter" fill="none" stroke="#000000" d="M0 0V11.955"/>
<text xml:space="preserve" transform="matrix(1 0 -0 1 0 182.914)" font-size="9.9626" font-family="CMR10"><tspan y="-147.447" x="19.04 24.579207 29.560507 35.099714 39.00505 43.428445 47.851839 51.169385 58.36238 63.34368 68.88289 74.4221 78.84549 83.26888 90.461879 97.24641 101.15175">Source-ConnectPro</tspan></text>
<path transform="matrix(1,0,0,-1,125.17,39.05301)" stroke-width=".398" stroke-linecap="butt" stroke-miterlimit="10" stroke-linejoin="miter" fill="none" stroke="#000000" d="M0 0V11.955"/>
<text xml:space="preserve" transform="matrix(1 0 -0 1 0 182.914)" font-size="9.9626" font-family="MSAM10"><tspan y="-147.447" x="149.758">&#x2713;</tspan></text>
<path transform="matrix(1,0,0,-1,182.649,39.05301)" stroke-width=".398" stroke-linecap="butt" stroke-miterlimit="10" stroke-linejoin="miter" fill="none" stroke="#000000" d="M0 0V11.955"/>
<text xml:space="preserve" transform="matrix(1 0 -0 1 0 182.914)" font-size="9.9626" font-family="MSAM10"><tspan y="-147.447" x="201.536">&#x2713;</tspan></text>
<path transform="matrix(1,0,0,-1,228.726,39.05301)" stroke-width=".398" stroke-linecap="butt" stroke-miterlimit="10" stroke-linejoin="miter" fill="none" stroke="#000000" d="M0 0V11.955"/>
<text xml:space="preserve" transform="matrix(1 0 -0 1 0 182.914)" font-size="9.9626" font-family="MSAM10"><tspan y="-147.447" x="257.396">&#x2713;</tspan></text>
<path transform="matrix(1,0,0,-1,294.369,39.05301)" stroke-width=".398" stroke-linecap="butt" stroke-miterlimit="10" stroke-linejoin="miter" fill="none" stroke="#000000" d="M0 0V11.955"/>
<path transform="matrix(1,0,0,-1,363.692,39.05301)" stroke-width=".398" stroke-linecap="butt" stroke-miterlimit="10" stroke-linejoin="miter" fill="none" stroke="#000000" d="M0 0V11.955"/>
<path transform="matrix(1,0,0,-1,452.692,39.05301)" stroke-width=".398" stroke-linecap="butt" stroke-miterlimit="10" stroke-linejoin="miter" fill="none" stroke="#000000" d="M0 0V11.955"/>
<path transform="matrix(1,0,0,-1,576.451,39.05301)" stroke-width=".398" stroke-linecap="butt" stroke-miterlimit="10" stroke-linejoin="miter" fill="none" stroke="#000000" d="M0 0V11.955"/>
<path transform="matrix(1,0,0,-1,0,51.009004)" stroke-width=".398" stroke-linecap="butt" stroke-miterlimit="10" stroke-linejoin="miter" fill="none" stroke="#000000" d="M0 0V11.955"/>
<text xml:space="preserve" transform="matrix(1 0 -0 1 0 182.914)" font-size="9.9626" font-family="CMR10"><tspan y="-135.492" x="23.343 30.81495 36.354158 46.8647 54.057699 59.038999 64.5782 70.11741 74.5408 78.964199 86.16715 92.95168 96.857028">VSTConnectPro</tspan></text>
<path transform="matrix(1,0,0,-1,125.17,51.009004)" stroke-width=".398" stroke-linecap="butt" stroke-miterlimit="10" stroke-linejoin="miter" fill="none" stroke="#000000" d="M0 0V11.955"/>
<text xml:space="preserve" transform="matrix(1 0 -0 1 0 182.914)" font-size="9.9626" font-family="MSAM10"><tspan y="-135.492" x="149.758">&#x2713;</tspan></text>
<path transform="matrix(1,0,0,-1,182.649,51.009004)" stroke-width=".398" stroke-linecap="butt" stroke-miterlimit="10" stroke-linejoin="miter" fill="none" stroke="#000000" d="M0 0V11.955"/>
<text xml:space="preserve" transform="matrix(1 0 -0 1 0 182.914)" font-size="9.9626" font-family="MSAM10"><tspan y="-135.492" x="201.536">&#x2713;</tspan></text>
<path transform="matrix(1,0,0,-1,228.726,51.009004)" stroke-width=".398" stroke-linecap="butt" stroke-miterlimit="10" stroke-linejoin="miter" fill="none" stroke="#000000" d="M0 0V11.955"/>
<path transform="matrix(1,0,0,-1,294.369,51.009004)" stroke-width=".398" stroke-linecap="butt" stroke-miterlimit="10" stroke-linejoin="miter" fill="none" stroke="#000000" d="M0 0V11.955"/>
<path transform="matrix(1,0,0,-1,363.692,51.009004)" stroke-width=".398" stroke-linecap="butt" stroke-miterlimit="10" stroke-linejoin="miter" fill="none" stroke="#000000" d="M0 0V11.955"/>
<path transform="matrix(1,0,0,-1,452.692,51.009004)" stroke-width=".398" stroke-linecap="butt" stroke-miterlimit="10" stroke-linejoin="miter" fill="none" stroke="#000000" d="M0 0V11.955"/>
<path transform="matrix(1,0,0,-1,576.451,51.009004)" stroke-width=".398" stroke-linecap="butt" stroke-miterlimit="10" stroke-linejoin="miter" fill="none" stroke="#000000" d="M0 0V11.955"/>
<path transform="matrix(1,0,0,-1,0,62.964006)" stroke-width=".398" stroke-linecap="butt" stroke-miterlimit="10" stroke-linejoin="miter" fill="none" stroke="#000000" d="M0 0V11.955"/>
<text xml:space="preserve" transform="matrix(1 0 -0 1 0 182.914)" font-size="9.9626" font-family="CMR10"><tspan y="-123.537" x="5.978 13.449951 18.710204 21.479807 30.33656 37.529558 40.29916 45.28046 50.819669 59.676424 66.87939 71.86069 74.62032 77.38992 82.37122 88.189388 93.170688 97.07603 102.05733 105.93278 108.70238 113.68368">AvidCloudCollaboration</tspan></text>
<path transform="matrix(1,0,0,-1,125.17,62.964006)" stroke-width=".398" stroke-linecap="butt" stroke-miterlimit="10" stroke-linejoin="miter" fill="none" stroke="#000000" d="M0 0V11.955"/>
<path transform="matrix(1,0,0,-1,182.649,62.964006)" stroke-width=".398" stroke-linecap="butt" stroke-miterlimit="10" stroke-linejoin="miter" fill="none" stroke="#000000" d="M0 0V11.955"/>
<text xml:space="preserve" transform="matrix(1 0 -0 1 0 182.914)" font-size="9.9626" font-family="MSAM10"><tspan y="-123.537" x="201.536">&#x2713;</tspan></text>
<path transform="matrix(1,0,0,-1,228.726,62.964006)" stroke-width=".398" stroke-linecap="butt" stroke-miterlimit="10" stroke-linejoin="miter" fill="none" stroke="#000000" d="M0 0V11.955"/>
<path transform="matrix(1,0,0,-1,294.369,62.964006)" stroke-width=".398" stroke-linecap="butt" stroke-miterlimit="10" stroke-linejoin="miter" fill="none" stroke="#000000" d="M0 0V11.955"/>
<path transform="matrix(1,0,0,-1,363.692,62.964006)" stroke-width=".398" stroke-linecap="butt" stroke-miterlimit="10" stroke-linejoin="miter" fill="none" stroke="#000000" d="M0 0V11.955"/>
<path transform="matrix(1,0,0,-1,452.692,62.964006)" stroke-width=".398" stroke-linecap="butt" stroke-miterlimit="10" stroke-linejoin="miter" fill="none" stroke="#000000" d="M0 0V11.955"/>
<text xml:space="preserve" transform="matrix(1 0 -0 1 0 182.914)" font-size="9.9626" font-family="MSAM10"><tspan y="-123.537" x="497.829">&#x2713;</tspan></text>
<text xml:space="preserve" transform="matrix(1 0 -0 1 0 182.914)" font-size="9.9626" font-family="CMR10"><tspan y="-123.537" x="506.131 510.00648 513.8819 518.3053 523.56558 527.441">(text)</tspan></text>
<path transform="matrix(1,0,0,-1,576.451,62.964006)" stroke-width=".398" stroke-linecap="butt" stroke-miterlimit="10" stroke-linejoin="miter" fill="none" stroke="#000000" d="M0 0V11.955"/>
<path transform="matrix(1,0,0,-1,0,74.919)" stroke-width=".398" stroke-linecap="butt" stroke-miterlimit="10" stroke-linejoin="miter" fill="none" stroke="#000000" d="M0 0V11.955"/>
<text xml:space="preserve" transform="matrix(1 0 -0 1 0 182.914)" font-size="9.9626" font-family="CMR10"><tspan y="-111.582" x="39.878 45.417207 50.398508 55.937715 61.47692 67.01613 70.89158 74.79692 79.77822">Soundtrap</tspan></text>
<path transform="matrix(1,0,0,-1,125.17,74.919)" stroke-width=".398" stroke-linecap="butt" stroke-miterlimit="10" stroke-linejoin="miter" fill="none" stroke="#000000" d="M0 0V11.955"/>
<path transform="matrix(1,0,0,-1,182.649,74.919)" stroke-width=".398" stroke-linecap="butt" stroke-miterlimit="10" stroke-linejoin="miter" fill="none" stroke="#000000" d="M0 0V11.955"/>
<path transform="matrix(1,0,0,-1,228.726,74.919)" stroke-width=".398" stroke-linecap="butt" stroke-miterlimit="10" stroke-linejoin="miter" fill="none" stroke="#000000" d="M0 0V11.955"/>
<text xml:space="preserve" transform="matrix(1 0 -0 1 0 182.914)" font-size="9.9626" font-family="MSAM10"><tspan y="-111.582" x="257.396">&#x2713;</tspan></text>
<path transform="matrix(1,0,0,-1,294.369,74.919)" stroke-width=".398" stroke-linecap="butt" stroke-miterlimit="10" stroke-linejoin="miter" fill="none" stroke="#000000" d="M0 0V11.955"/>
<text xml:space="preserve" transform="matrix(1 0 -0 1 0 182.914)" font-size="9.9626" font-family="MSAM10"><tspan y="-111.582" x="324.88">&#x2713;</tspan></text>
<path transform="matrix(1,0,0,-1,363.692,74.919)" stroke-width=".398" stroke-linecap="butt" stroke-miterlimit="10" stroke-linejoin="miter" fill="none" stroke="#000000" d="M0 0V11.955"/>
<path transform="matrix(1,0,0,-1,452.692,74.919)" stroke-width=".398" stroke-linecap="butt" stroke-miterlimit="10" stroke-linejoin="miter" fill="none" stroke="#000000" d="M0 0V11.955"/>
<text xml:space="preserve" transform="matrix(1 0 -0 1 0 182.914)" font-size="9.9626" font-family="MSAM10"><tspan y="-111.582" x="474.997">&#x2713;</tspan></text>
<text xml:space="preserve" transform="matrix(1 0 -0 1 0 182.914)" font-size="9.9626" font-family="CMR10"><tspan y="-111.582" x="483.30003 487.17549 492.43574 495.20533 500.74455 505.16795 513.4668 518.4481 523.9873 532.854 536.72946 541.15286 546.4131 550.2885">(videoandtext)</tspan></text>
<path transform="matrix(1,0,0,-1,576.451,74.919)" stroke-width=".398" stroke-linecap="butt" stroke-miterlimit="10" stroke-linejoin="miter" fill="none" stroke="#000000" d="M0 0V11.955"/>
<path transform="matrix(1,0,0,-1,0,86.874)" stroke-width=".398" stroke-linecap="butt" stroke-miterlimit="10" stroke-linejoin="miter" fill="none" stroke="#000000" d="M0 0V11.955"/>
<text xml:space="preserve" transform="matrix(1 0 -0 1 0 182.914)" font-size="9.9626" font-family="CMR10"><tspan y="-99.626" x="32.24 39.711954 45.25116 50.790369 53.55997 61.858819 70.99452 75.69687 80.68813 85.11153 89.01687">AudioMovers</tspan></text>
<path transform="matrix(1,0,0,-1,125.17,86.874)" stroke-width=".398" stroke-linecap="butt" stroke-miterlimit="10" stroke-linejoin="miter" fill="none" stroke="#000000" d="M0 0V11.955"/>
<text xml:space="preserve" transform="matrix(1 0 -0 1 0 182.914)" font-size="9.9626" font-family="MSAM10"><tspan y="-99.626" x="149.758">&#x2713;</tspan></text>
<path transform="matrix(1,0,0,-1,182.649,86.874)" stroke-width=".398" stroke-linecap="butt" stroke-miterlimit="10" stroke-linejoin="miter" fill="none" stroke="#000000" d="M0 0V11.955"/>
<text xml:space="preserve" transform="matrix(1 0 -0 1 0 182.914)" font-size="9.9626" font-family="MSAM10"><tspan y="-99.626" x="201.536">&#x2713;</tspan></text>
<path transform="matrix(1,0,0,-1,228.726,86.874)" stroke-width=".398" stroke-linecap="butt" stroke-miterlimit="10" stroke-linejoin="miter" fill="none" stroke="#000000" d="M0 0V11.955"/>
<text xml:space="preserve" transform="matrix(1 0 -0 1 0 182.914)" font-size="9.9626" font-family="MSAM10"><tspan y="-99.626" x="257.396">&#x2713;</tspan></text>
<path transform="matrix(1,0,0,-1,294.369,86.874)" stroke-width=".398" stroke-linecap="butt" stroke-miterlimit="10" stroke-linejoin="miter" fill="none" stroke="#000000" d="M0 0V11.955"/>
<path transform="matrix(1,0,0,-1,363.692,86.874)" stroke-width=".398" stroke-linecap="butt" stroke-miterlimit="10" stroke-linejoin="miter" fill="none" stroke="#000000" d="M0 0V11.955"/>
<text xml:space="preserve" transform="matrix(1 0 -0 1 0 182.914)" font-size="9.9626" font-family="MSAM10"><tspan y="-99.626" x="369.67">&#x2713;</tspan></text>
<text xml:space="preserve" transform="matrix(1 0 -0 1 0 182.914)" font-size="9.9626" font-family="CMR10"><tspan y="-99.626" x="377.97203 381.84748 386.82878 392.36799 395.13758 403.71537 409.25459 413.1599 417.5833 423.12254 427.02787 429.79747 435.0577 438.93318 442.85844">(onlypreprints)</tspan></text>
<path transform="matrix(1,0,0,-1,452.692,86.874)" stroke-width=".398" stroke-linecap="butt" stroke-miterlimit="10" stroke-linejoin="miter" fill="none" stroke="#000000" d="M0 0V11.955"/>
<path transform="matrix(1,0,0,-1,576.451,86.874)" stroke-width=".398" stroke-linecap="butt" stroke-miterlimit="10" stroke-linejoin="miter" fill="none" stroke="#000000" d="M0 0V11.955"/>
<path transform="matrix(1,0,0,-1,0,98.829)" stroke-width=".398" stroke-linecap="butt" stroke-miterlimit="10" stroke-linejoin="miter" fill="none" stroke="#000000" d="M0 0V11.955"/>
<text xml:space="preserve" transform="matrix(1 0 -0 1 0 182.914)" font-size="9.9626" font-family="CMR10"><tspan y="-87.671" x="40.999 48.05252 53.03382 58.57303 67.42978 73.6564 78.6377">BandLab</tspan></text>
<path transform="matrix(1,0,0,-1,125.17,98.829)" stroke-width=".398" stroke-linecap="butt" stroke-miterlimit="10" stroke-linejoin="miter" fill="none" stroke="#000000" d="M0 0V11.955"/>
<text xml:space="preserve" transform="matrix(1 0 -0 1 0 182.914)" font-size="9.9626" font-family="MSAM10"><tspan y="-87.671" x="149.758">&#x2713;</tspan></text>
<path transform="matrix(1,0,0,-1,182.649,98.829)" stroke-width=".398" stroke-linecap="butt" stroke-miterlimit="10" stroke-linejoin="miter" fill="none" stroke="#000000" d="M0 0V11.955"/>
<path transform="matrix(1,0,0,-1,228.726,98.829)" stroke-width=".398" stroke-linecap="butt" stroke-miterlimit="10" stroke-linejoin="miter" fill="none" stroke="#000000" d="M0 0V11.955"/>
<text xml:space="preserve" transform="matrix(1 0 -0 1 0 182.914)" font-size="9.9626" font-family="MSAM10"><tspan y="-87.671" x="257.396">&#x2713;</tspan></text>
<path transform="matrix(1,0,0,-1,294.369,98.829)" stroke-width=".398" stroke-linecap="butt" stroke-miterlimit="10" stroke-linejoin="miter" fill="none" stroke="#000000" d="M0 0V11.955"/>
<text xml:space="preserve" transform="matrix(1 0 -0 1 0 182.914)" font-size="9.9626" font-family="MSAM10"><tspan y="-87.671" x="324.88">&#x2713;</tspan></text>
<path transform="matrix(1,0,0,-1,363.692,98.829)" stroke-width=".398" stroke-linecap="butt" stroke-miterlimit="10" stroke-linejoin="miter" fill="none" stroke="#000000" d="M0 0V11.955"/>
<path transform="matrix(1,0,0,-1,452.692,98.829)" stroke-width=".398" stroke-linecap="butt" stroke-miterlimit="10" stroke-linejoin="miter" fill="none" stroke="#000000" d="M0 0V11.955"/>
<text xml:space="preserve" transform="matrix(1 0 -0 1 0 182.914)" font-size="9.9626" font-family="MSAM10"><tspan y="-87.671" x="497.829">&#x2713;</tspan></text>
<text xml:space="preserve" transform="matrix(1 0 -0 1 0 182.914)" font-size="9.9626" font-family="CMR10"><tspan y="-87.671" x="506.131 510.00648 513.8819 518.3053 523.56558 527.441">(text)</tspan></text>
<path transform="matrix(1,0,0,-1,576.451,98.829)" stroke-width=".398" stroke-linecap="butt" stroke-miterlimit="10" stroke-linejoin="miter" fill="none" stroke="#000000" d="M0 0V11.955"/>
<path transform="matrix(1,0,0,-1,0,110.784008)" stroke-width=".398" stroke-linecap="butt" stroke-miterlimit="10" stroke-linejoin="miter" fill="none" stroke="#000000" d="M0 0V11.955"/>
<text xml:space="preserve" transform="matrix(1 0 -0 1 0 182.914)" font-size="9.9626" font-family="CMR10"><tspan y="-75.716" x="33.389 38.928209 43.909509 49.448717 54.987924 63.844678 74.08623 79.625438 84.606739 87.376338">SoundWhale</tspan></text>
<path transform="matrix(1,0,0,-1,125.17,110.784008)" stroke-width=".398" stroke-linecap="butt" stroke-miterlimit="10" stroke-linejoin="miter" fill="none" stroke="#000000" d="M0 0V11.955"/>
<text xml:space="preserve" transform="matrix(1 0 -0 1 0 182.914)" font-size="9.9626" font-family="MSAM10"><tspan y="-75.716" x="149.758">&#x2713;</tspan></text>
<path transform="matrix(1,0,0,-1,182.649,110.784008)" stroke-width=".398" stroke-linecap="butt" stroke-miterlimit="10" stroke-linejoin="miter" fill="none" stroke="#000000" d="M0 0V11.955"/>
<text xml:space="preserve" transform="matrix(1 0 -0 1 0 182.914)" font-size="9.9626" font-family="MSAM10"><tspan y="-75.716" x="201.536">&#x2713;</tspan></text>
<path transform="matrix(1,0,0,-1,228.726,110.784008)" stroke-width=".398" stroke-linecap="butt" stroke-miterlimit="10" stroke-linejoin="miter" fill="none" stroke="#000000" d="M0 0V11.955"/>
<path transform="matrix(1,0,0,-1,294.369,110.784008)" stroke-width=".398" stroke-linecap="butt" stroke-miterlimit="10" stroke-linejoin="miter" fill="none" stroke="#000000" d="M0 0V11.955"/>
<path transform="matrix(1,0,0,-1,363.692,110.784008)" stroke-width=".398" stroke-linecap="butt" stroke-miterlimit="10" stroke-linejoin="miter" fill="none" stroke="#000000" d="M0 0V11.955"/>
<path transform="matrix(1,0,0,-1,452.692,110.784008)" stroke-width=".398" stroke-linecap="butt" stroke-miterlimit="10" stroke-linejoin="miter" fill="none" stroke="#000000" d="M0 0V11.955"/>
<text xml:space="preserve" transform="matrix(1 0 -0 1 0 182.914)" font-size="9.9626" font-family="MSAM10"><tspan y="-75.716" x="458.67">&#x2713;</tspan></text>
<text xml:space="preserve" transform="matrix(1 0 -0 1 0 182.914)" font-size="9.9626" font-family="CMR10"><tspan y="-75.716" x="466.97203 470.84748 476.10774 478.87733 484.41654 488.83995 493.82124 499.90837 504.88966 510.42887 515.9681 518.7377 523.719 529.80618 534.7875 540.32669 549.19338 553.0688 557.4922 562.75247 566.62789">(video,audio,andtext)</tspan></text>
<path transform="matrix(1,0,0,-1,576.451,110.784008)" stroke-width=".398" stroke-linecap="butt" stroke-miterlimit="10" stroke-linejoin="miter" fill="none" stroke="#000000" d="M0 0V11.955"/>
<path transform="matrix(1,0,0,-1,0,122.740009)" stroke-width=".398" stroke-linecap="butt" stroke-miterlimit="10" stroke-linejoin="miter" fill="none" stroke="#000000" d="M0 0V11.955"/>
<text xml:space="preserve" transform="matrix(1 0 -0 1 0 182.914)" font-size="9.9626" font-family="CMR10"><tspan y="-63.761" x="44.915 51.141626 53.91123 57.836496 61.711946 66.13534 71.39559 75.27104">Listento</tspan></text>
<path transform="matrix(1,0,0,-1,125.17,122.740009)" stroke-width=".398" stroke-linecap="butt" stroke-miterlimit="10" stroke-linejoin="miter" fill="none" stroke="#000000" d="M0 0V11.955"/>
<text xml:space="preserve" transform="matrix(1 0 -0 1 0 182.914)" font-size="9.9626" font-family="MSAM10"><tspan y="-63.761" x="149.758">&#x2713;</tspan></text>
<path transform="matrix(1,0,0,-1,182.649,122.740009)" stroke-width=".398" stroke-linecap="butt" stroke-miterlimit="10" stroke-linejoin="miter" fill="none" stroke="#000000" d="M0 0V11.955"/>
<text xml:space="preserve" transform="matrix(1 0 -0 1 0 182.914)" font-size="9.9626" font-family="MSAM10"><tspan y="-63.761" x="201.536">&#x2713;</tspan></text>
<path transform="matrix(1,0,0,-1,228.726,122.740009)" stroke-width=".398" stroke-linecap="butt" stroke-miterlimit="10" stroke-linejoin="miter" fill="none" stroke="#000000" d="M0 0V11.955"/>
<text xml:space="preserve" transform="matrix(1 0 -0 1 0 182.914)" font-size="9.9626" font-family="MSAM10"><tspan y="-63.761" x="257.396">&#x2713;</tspan></text>
<path transform="matrix(1,0,0,-1,294.369,122.740009)" stroke-width=".398" stroke-linecap="butt" stroke-miterlimit="10" stroke-linejoin="miter" fill="none" stroke="#000000" d="M0 0V11.955"/>
<path transform="matrix(1,0,0,-1,363.692,122.740009)" stroke-width=".398" stroke-linecap="butt" stroke-miterlimit="10" stroke-linejoin="miter" fill="none" stroke="#000000" d="M0 0V11.955"/>
<path transform="matrix(1,0,0,-1,452.692,122.740009)" stroke-width=".398" stroke-linecap="butt" stroke-miterlimit="10" stroke-linejoin="miter" fill="none" stroke="#000000" d="M0 0V11.955"/>
<text xml:space="preserve" transform="matrix(1 0 -0 1 0 182.914)" font-size="9.9626" font-family="MSAM10"><tspan y="-63.761" x="495.061">&#x2713;</tspan></text>
<text xml:space="preserve" transform="matrix(1 0 -0 1 0 182.914)" font-size="9.9626" font-family="CMR10"><tspan y="-63.761" x="503.363 507.23847 512.4987 515.2683 520.8075 525.2309 530.2122">(video)</tspan></text>
<path transform="matrix(1,0,0,-1,576.451,122.740009)" stroke-width=".398" stroke-linecap="butt" stroke-miterlimit="10" stroke-linejoin="miter" fill="none" stroke="#000000" d="M0 0V11.955"/>
<path transform="matrix(1,0,0,-1,0,134.695)" stroke-width=".398" stroke-linecap="butt" stroke-miterlimit="10" stroke-linejoin="miter" fill="none" stroke="#000000" d="M0 0V11.955"/>
<text xml:space="preserve" transform="matrix(1 0 -0 1 0 182.914)" font-size="9.9626" font-family="CMR10"><tspan y="-51.806" x="22.25 27.789206 32.2126 36.137868 40.063135 42.832738 47.814039 53.07429 60.26729 63.036893 66.94223 74.69313 80.23234 84.10779 89.646999 95.17624 97.94584">SessionwireStudio</tspan></text>
<path transform="matrix(1,0,0,-1,125.17,134.695)" stroke-width=".398" stroke-linecap="butt" stroke-miterlimit="10" stroke-linejoin="miter" fill="none" stroke="#000000" d="M0 0V11.955"/>
<text xml:space="preserve" transform="matrix(1 0 -0 1 0 182.914)" font-size="9.9626" font-family="MSAM10"><tspan y="-51.806" x="149.758">&#x2713;</tspan></text>
<path transform="matrix(1,0,0,-1,182.649,134.695)" stroke-width=".398" stroke-linecap="butt" stroke-miterlimit="10" stroke-linejoin="miter" fill="none" stroke="#000000" d="M0 0V11.955"/>
<text xml:space="preserve" transform="matrix(1 0 -0 1 0 182.914)" font-size="9.9626" font-family="MSAM10"><tspan y="-51.806" x="201.536">&#x2713;</tspan></text>
<path transform="matrix(1,0,0,-1,228.726,134.695)" stroke-width=".398" stroke-linecap="butt" stroke-miterlimit="10" stroke-linejoin="miter" fill="none" stroke="#000000" d="M0 0V11.955"/>
<path transform="matrix(1,0,0,-1,294.369,134.695)" stroke-width=".398" stroke-linecap="butt" stroke-miterlimit="10" stroke-linejoin="miter" fill="none" stroke="#000000" d="M0 0V11.955"/>
<path transform="matrix(1,0,0,-1,363.692,134.695)" stroke-width=".398" stroke-linecap="butt" stroke-miterlimit="10" stroke-linejoin="miter" fill="none" stroke="#000000" d="M0 0V11.955"/>
<path transform="matrix(1,0,0,-1,452.692,134.695)" stroke-width=".398" stroke-linecap="butt" stroke-miterlimit="10" stroke-linejoin="miter" fill="none" stroke="#000000" d="M0 0V11.955"/>
<text xml:space="preserve" transform="matrix(1 0 -0 1 0 182.914)" font-size="9.9626" font-family="MSAM10"><tspan y="-51.806" x="466.93">&#x2713;</tspan></text>
<text xml:space="preserve" transform="matrix(1 0 -0 1 0 182.914)" font-size="9.9626" font-family="CMR10"><tspan y="-51.806" x="475.233 479.10847 483.03373 487.45713 491.36247 495.78587 500.20927 505.74848 511.8356 517.0958 519.8654 525.4046 529.828 534.8093 540.90646 544.78189 549.20529 554.4655 558.34097">(screen,video,text)</tspan></text>
<path transform="matrix(1,0,0,-1,576.451,134.695)" stroke-width=".398" stroke-linecap="butt" stroke-miterlimit="10" stroke-linejoin="miter" fill="none" stroke="#000000" d="M0 0V11.955"/>
<path transform="matrix(1,0,0,-1,0,146.65)" stroke-width=".398" stroke-linecap="butt" stroke-miterlimit="10" stroke-linejoin="miter" fill="none" stroke="#000000" d="M0 0V11.955"/>
<text xml:space="preserve" transform="matrix(1 0 -0 1 0 182.914)" font-size="9.9626" font-family="CMR10"><tspan y="-39.851" x="24.533 31.725998 36.7073 42.246507 47.785715 52.209108 56.6325 60.50795 63.277555 68.25885 77.1156 84.8665 90.68466 95.108058">ConnectionOpen</tspan></text>
<path transform="matrix(1,0,0,-1,125.17,146.65)" stroke-width=".398" stroke-linecap="butt" stroke-miterlimit="10" stroke-linejoin="miter" fill="none" stroke="#000000" d="M0 0V11.955"/>
<text xml:space="preserve" transform="matrix(1 0 -0 1 0 182.914)" font-size="9.9626" font-family="MSAM10"><tspan y="-39.851" x="149.758">&#x2713;</tspan></text>
<path transform="matrix(1,0,0,-1,182.649,146.65)" stroke-width=".398" stroke-linecap="butt" stroke-miterlimit="10" stroke-linejoin="miter" fill="none" stroke="#000000" d="M0 0V11.955"/>
<text xml:space="preserve" transform="matrix(1 0 -0 1 0 182.914)" font-size="9.9626" font-family="MSAM10"><tspan y="-39.851" x="201.536">&#x2713;</tspan></text>
<path transform="matrix(1,0,0,-1,228.726,146.65)" stroke-width=".398" stroke-linecap="butt" stroke-miterlimit="10" stroke-linejoin="miter" fill="none" stroke="#000000" d="M0 0V11.955"/>
<path transform="matrix(1,0,0,-1,294.369,146.65)" stroke-width=".398" stroke-linecap="butt" stroke-miterlimit="10" stroke-linejoin="miter" fill="none" stroke="#000000" d="M0 0V11.955"/>
<path transform="matrix(1,0,0,-1,363.692,146.65)" stroke-width=".398" stroke-linecap="butt" stroke-miterlimit="10" stroke-linejoin="miter" fill="none" stroke="#000000" d="M0 0V11.955"/>
<path transform="matrix(1,0,0,-1,452.692,146.65)" stroke-width=".398" stroke-linecap="butt" stroke-miterlimit="10" stroke-linejoin="miter" fill="none" stroke="#000000" d="M0 0V11.955"/>
<text xml:space="preserve" transform="matrix(1 0 -0 1 0 182.914)" font-size="9.9626" font-family="MSAM10"><tspan y="-39.851" x="466.93">&#x2713;</tspan></text>
<text xml:space="preserve" transform="matrix(1 0 -0 1 0 182.914)" font-size="9.9626" font-family="CMR10"><tspan y="-39.851" x="475.233 479.10847 484.3687 487.1383 492.67753 497.10093 502.0822 508.16935 512.0946 516.518 520.42337 524.84677 529.27017 534.8093 540.90646 544.78189 549.20529 554.4655 558.34097">(video,screen,text)</tspan></text>
<path transform="matrix(1,0,0,-1,576.451,146.65)" stroke-width=".398" stroke-linecap="butt" stroke-miterlimit="10" stroke-linejoin="miter" fill="none" stroke="#000000" d="M0 0V11.955"/>
<path transform="matrix(1,0,0,-1,0,158.605)" stroke-width=".398" stroke-linecap="butt" stroke-miterlimit="10" stroke-linejoin="miter" fill="none" stroke="#000000" d="M0 0V11.955"/>
<text xml:space="preserve" transform="matrix(1 0 -0 1 0 182.914)" font-size="9.9626" font-family="CMR10"><tspan y="-27.895" x="32.559 38.098207 43.079507 48.618715 54.15792 63.014677 70.486629 75.467929 79.343379 82.112979 87.09428">SoundNation</tspan></text>
<path transform="matrix(1,0,0,-1,125.17,158.605)" stroke-width=".398" stroke-linecap="butt" stroke-miterlimit="10" stroke-linejoin="miter" fill="none" stroke="#000000" d="M0 0V11.955"/>
<text xml:space="preserve" transform="matrix(1 0 -0 1 0 182.914)" font-size="9.9626" font-family="MSAM10"><tspan y="-27.895" x="149.758">&#x2713;</tspan></text>
<path transform="matrix(1,0,0,-1,182.649,158.605)" stroke-width=".398" stroke-linecap="butt" stroke-miterlimit="10" stroke-linejoin="miter" fill="none" stroke="#000000" d="M0 0V11.955"/>
<text xml:space="preserve" transform="matrix(1 0 -0 1 0 182.914)" font-size="9.9626" font-family="MSAM10"><tspan y="-27.895" x="201.536">&#x2713;</tspan></text>
<path transform="matrix(1,0,0,-1,228.726,158.605)" stroke-width=".398" stroke-linecap="butt" stroke-miterlimit="10" stroke-linejoin="miter" fill="none" stroke="#000000" d="M0 0V11.955"/>
<text xml:space="preserve" transform="matrix(1 0 -0 1 0 182.914)" font-size="9.9626" font-family="MSAM10"><tspan y="-27.895" x="257.396">&#x2713;</tspan></text>
<path transform="matrix(1,0,0,-1,294.369,158.605)" stroke-width=".398" stroke-linecap="butt" stroke-miterlimit="10" stroke-linejoin="miter" fill="none" stroke="#000000" d="M0 0V11.955"/>
<text xml:space="preserve" transform="matrix(1 0 -0 1 0 182.914)" font-size="9.9626" font-family="MSAM10"><tspan y="-27.895" x="324.88">&#x2713;</tspan></text>
<path transform="matrix(1,0,0,-1,363.692,158.605)" stroke-width=".398" stroke-linecap="butt" stroke-miterlimit="10" stroke-linejoin="miter" fill="none" stroke="#000000" d="M0 0V11.955"/>
<path transform="matrix(1,0,0,-1,452.692,158.605)" stroke-width=".398" stroke-linecap="butt" stroke-miterlimit="10" stroke-linejoin="miter" fill="none" stroke="#000000" d="M0 0V11.955"/>
<text xml:space="preserve" transform="matrix(1 0 -0 1 0 182.914)" font-size="9.9626" font-family="MSAM10"><tspan y="-27.895" x="497.275">&#x2713;</tspan></text>
<text xml:space="preserve" transform="matrix(1 0 -0 1 0 182.914)" font-size="9.9626" font-family="CMR10"><tspan y="-27.895" x="505.577 509.45246 513.5969 519.1361 524.11746 527.99288">(chat)</tspan></text>
<path transform="matrix(1,0,0,-1,576.451,158.605)" stroke-width=".398" stroke-linecap="butt" stroke-miterlimit="10" stroke-linejoin="miter" fill="none" stroke="#000000" d="M0 0V11.955"/>
<path transform="matrix(1,0,0,-1,0,170.56)" stroke-width=".398" stroke-linecap="butt" stroke-miterlimit="10" stroke-linejoin="miter" fill="none" stroke="#000000" d="M0 0V11.955"/>
<text xml:space="preserve" transform="matrix(1 0 -0 1 0 182.914)" font-size="9.9626" font-family="CMR10"><tspan y="-15.94" x="51.93 59.541429 66.73443">DCF</tspan></text>
<path transform="matrix(1,0,0,-1,125.17,170.56)" stroke-width=".398" stroke-linecap="butt" stroke-miterlimit="10" stroke-linejoin="miter" fill="none" stroke="#000000" d="M0 0V11.955"/>
<text xml:space="preserve" transform="matrix(1 0 -0 1 0 182.914)" font-size="9.9626" font-family="MSAM10"><tspan y="-15.94" x="149.758">&#x2713;</tspan></text>
<path transform="matrix(1,0,0,-1,182.649,170.56)" stroke-width=".398" stroke-linecap="butt" stroke-miterlimit="10" stroke-linejoin="miter" fill="none" stroke="#000000" d="M0 0V11.955"/>
<text xml:space="preserve" transform="matrix(1 0 -0 1 0 182.914)" font-size="9.9626" font-family="MSAM10"><tspan y="-15.94" x="201.536">&#x2713;</tspan></text>
<path transform="matrix(1,0,0,-1,228.726,170.56)" stroke-width=".398" stroke-linecap="butt" stroke-miterlimit="10" stroke-linejoin="miter" fill="none" stroke="#000000" d="M0 0V11.955"/>
<text xml:space="preserve" transform="matrix(1 0 -0 1 0 182.914)" font-size="9.9626" font-family="MSAM10"><tspan y="-15.94" x="257.396">&#x2713;</tspan></text>
<path transform="matrix(1,0,0,-1,294.369,170.56)" stroke-width=".398" stroke-linecap="butt" stroke-miterlimit="10" stroke-linejoin="miter" fill="none" stroke="#000000" d="M0 0V11.955"/>
<text xml:space="preserve" transform="matrix(1 0 -0 1 0 182.914)" font-size="9.9626" font-family="MSAM10"><tspan y="-15.94" x="324.88">&#x2713;</tspan></text>
<path transform="matrix(1,0,0,-1,363.692,170.56)" stroke-width=".398" stroke-linecap="butt" stroke-miterlimit="10" stroke-linejoin="miter" fill="none" stroke="#000000" d="M0 0V11.955"/>
<path transform="matrix(1,0,0,-1,452.692,170.56)" stroke-width=".398" stroke-linecap="butt" stroke-miterlimit="10" stroke-linejoin="miter" fill="none" stroke="#000000" d="M0 0V11.955"/>
<text xml:space="preserve" transform="matrix(1 0 -0 1 0 182.914)" font-size="9.9626" font-family="MSAM10"><tspan y="-15.94" x="495.061">&#x2713;</tspan></text>
<text xml:space="preserve" transform="matrix(1 0 -0 1 0 182.914)" font-size="9.9626" font-family="CMR10"><tspan y="-15.94" x="503.363 507.23847 512.4987 515.2683 520.8075 525.2309 530.2122">(video)</tspan></text>
<path transform="matrix(1,0,0,-1,576.451,170.56)" stroke-width=".398" stroke-linecap="butt" stroke-miterlimit="10" stroke-linejoin="miter" fill="none" stroke="#000000" d="M0 0V11.955"/>
<path transform="matrix(1,0,0,-1,0,182.515)" stroke-width=".398" stroke-linecap="butt" stroke-miterlimit="10" stroke-linejoin="miter" fill="none" stroke="#000000" d="M0 0V11.955"/>
<text xml:space="preserve" transform="matrix(1 0 -0 1 0 182.914)" font-size="9.9626" font-family="CMBX10" font-weight="bold"><tspan y="-3.985" x="38.398 49.277158 52.455228 58.502527 64.86863 71.23473 76.803829 81.5261">MixShare</tspan></text>
<path transform="matrix(1,0,0,-1,125.17,182.515)" stroke-width=".398" stroke-linecap="butt" stroke-miterlimit="10" stroke-linejoin="miter" fill="none" stroke="#000000" d="M0 0V11.955"/>
<text xml:space="preserve" transform="matrix(1 0 -0 1 0 182.914)" font-size="9.9626" font-family="MSAM10"><tspan y="-3.985" x="149.758">&#x2713;</tspan></text>
<path transform="matrix(1,0,0,-1,182.649,182.515)" stroke-width=".398" stroke-linecap="butt" stroke-miterlimit="10" stroke-linejoin="miter" fill="none" stroke="#000000" d="M0 0V11.955"/>
<text xml:space="preserve" transform="matrix(1 0 -0 1 0 182.914)" font-size="9.9626" font-family="MSAM10"><tspan y="-3.985" x="201.536">&#x2713;</tspan></text>
<path transform="matrix(1,0,0,-1,228.726,182.515)" stroke-width=".398" stroke-linecap="butt" stroke-miterlimit="10" stroke-linejoin="miter" fill="none" stroke="#000000" d="M0 0V11.955"/>
<path transform="matrix(1,0,0,-1,294.369,182.515)" stroke-width=".398" stroke-linecap="butt" stroke-miterlimit="10" stroke-linejoin="miter" fill="none" stroke="#000000" d="M0 0V11.955"/>
<text xml:space="preserve" transform="matrix(1 0 -0 1 0 182.914)" font-size="9.9626" font-family="MSAM10"><tspan y="-3.985" x="324.88">&#x2713;</tspan></text>
<path transform="matrix(1,0,0,-1,363.692,182.515)" stroke-width=".398" stroke-linecap="butt" stroke-miterlimit="10" stroke-linejoin="miter" fill="none" stroke="#000000" d="M0 0V11.955"/>
<text xml:space="preserve" transform="matrix(1 0 -0 1 0 182.914)" font-size="9.9626" font-family="MSAM10"><tspan y="-3.985" x="404.041">&#x2713;</tspan></text>
<path transform="matrix(1,0,0,-1,452.692,182.515)" stroke-width=".398" stroke-linecap="butt" stroke-miterlimit="10" stroke-linejoin="miter" fill="none" stroke="#000000" d="M0 0V11.955"/>
<path transform="matrix(1,0,0,-1,576.451,182.515)" stroke-width=".398" stroke-linecap="butt" stroke-miterlimit="10" stroke-linejoin="miter" fill="none" stroke="#000000" d="M0 0V11.955"/>
<path transform="matrix(1,0,0,-1,0,182.715)" stroke-width=".398" stroke-linecap="butt" stroke-miterlimit="10" stroke-linejoin="miter" fill="none" stroke="#000000" d="M0 0H576.451"/>
</svg>
